M48
; DRILL file KiCad 10.0.6 date 2026-09-24T17:44:23
; FORMAT={-:-/ absolute / metric / decimal}
; #@! TF.CreationDate,2026-09-24T17:44:23+00:00
; #@! TF.GenerationSoftware,Kicad,Pcbnew,10.0.6
; #@! TF.FileFunction,MixedPlating,1,2
FMAT,2
METRIC
; #@! TA.AperFunction,Plated,PTH,ViaDrill
T1C0.200
; #@! TA.AperFunction,Plated,PTH,ComponentDrill
T2C0.600
; #@! TA.AperFunction,Plated,PTH,ComponentDrill
T3C1.300
; #@! TA.AperFunction,Plated,PTH,ComponentDrill
T4C2.300
; #@! TA.AperFunction,Plated,PTH,ViaDrill
T5C3.500
; #@! TA.AperFunction,NonPlated,NPTH,ComponentDrill
T6C0.650
%
G90
G05
T1
X110.75Y-74.75
X110.75Y-76.75
X110.75Y-78.75
X110.75Y-80.75
X110.75Y-82.75
X110.75Y-84.75
X110.75Y-86.75
X110.75Y-88.75
X110.75Y-90.75
X110.75Y-92.75
X110.75Y-94.75
X110.75Y-96.75
X110.75Y-98.75
X110.75Y-100.75
X110.75Y-102.75
X113.75Y-68.25
X113.75Y-109.25
X115.75Y-68.25
X115.75Y-109.25
X117.75Y-68.25
X117.75Y-109.25
X119.75Y-68.25
X119.75Y-109.25
X121.75Y-68.25
X121.75Y-109.25
X123.75Y-68.25
X123.75Y-78.75
X123.75Y-98.75
X123.75Y-109.25
X125.75Y-68.25
X125.75Y-76.75
X125.75Y-78.75
X125.75Y-80.75
X125.75Y-96.75
X125.75Y-98.75
X125.75Y-100.75
X125.75Y-109.25
X127.75Y-68.25
X127.75Y-76.75
X127.75Y-78.75
X127.75Y-80.75
X127.75Y-88.75
X127.75Y-96.75
X127.75Y-98.75
X127.75Y-100.75
X127.75Y-109.25
X129.75Y-68.25
X129.75Y-76.75
X129.75Y-78.75
X129.75Y-80.75
X129.75Y-86.75
X129.75Y-88.75
X129.75Y-90.75
X129.75Y-96.75
X129.75Y-98.75
X129.75Y-100.75
X129.75Y-109.25
X131.75Y-68.25
X131.75Y-76.75
X131.75Y-78.75
X131.75Y-80.75
X131.75Y-88.75
X131.75Y-96.75
X131.75Y-98.75
X131.75Y-100.75
X131.75Y-109.25
X133.75Y-68.25
X133.75Y-76.75
X133.75Y-78.75
X133.75Y-80.75
X133.75Y-96.75
X133.75Y-98.75
X133.75Y-100.75
X133.75Y-109.25
X135.75Y-68.25
X135.75Y-78.75
X135.75Y-98.75
X135.75Y-109.25
X137.75Y-68.25
X137.75Y-109.25
X139.75Y-68.25
X139.75Y-109.25
X141.75Y-68.25
X141.75Y-109.25
X143.75Y-68.25
X143.75Y-109.25
X145.75Y-68.25
X145.75Y-109.25
X147.75Y-68.25
X147.75Y-109.25
X149.75Y-68.25
X149.75Y-109.25
X151.75Y-68.25
X151.75Y-109.25
X153.75Y-68.25
X153.75Y-109.25
X155.75Y-68.25
X155.75Y-109.25
X157.75Y-68.25
X157.75Y-109.25
X159.75Y-68.25
X159.75Y-109.25
X161.75Y-68.25
X161.75Y-78.75
X161.75Y-98.75
X161.75Y-109.25
X163.75Y-68.25
X163.75Y-76.75
X163.75Y-78.75
X163.75Y-80.75
X163.75Y-96.75
X163.75Y-98.75
X163.75Y-100.75
X163.75Y-109.25
X165.75Y-68.25
X165.75Y-76.75
X165.75Y-78.75
X165.75Y-80.75
X165.75Y-88.75
X165.75Y-96.75
X165.75Y-98.75
X165.75Y-100.75
X165.75Y-109.25
X167.75Y-68.25
X167.75Y-76.75
X167.75Y-78.75
X167.75Y-80.75
X167.75Y-86.75
X167.75Y-88.75
X167.75Y-90.75
X167.75Y-96.75
X167.75Y-98.75
X167.75Y-100.75
X167.75Y-109.25
X169.75Y-68.25
X169.75Y-76.75
X169.75Y-78.75
X169.75Y-80.75
X169.75Y-88.75
X169.75Y-96.75
X169.75Y-98.75
X169.75Y-100.75
X169.75Y-109.25
X171.75Y-68.25
X171.75Y-76.75
X171.75Y-78.75
X171.75Y-80.75
X171.75Y-96.75
X171.75Y-98.75
X171.75Y-100.75
X171.75Y-109.25
X173.75Y-68.25
X173.75Y-78.75
X173.75Y-98.75
X173.75Y-109.25
X175.75Y-68.25
X175.75Y-109.25
X177.75Y-68.25
X177.75Y-109.25
X179.75Y-68.25
X179.75Y-109.25
X181.75Y-68.25
X181.75Y-109.25
X183.75Y-68.25
X183.75Y-109.25
X186.75Y-74.75
X186.75Y-76.75
X186.75Y-78.75
X186.75Y-80.75
X186.75Y-82.75
X186.75Y-84.75
X186.75Y-86.75
X186.75Y-88.75
X186.75Y-90.75
X186.75Y-92.75
X186.75Y-94.75
X186.75Y-96.75
X186.75Y-98.75
X186.75Y-100.75
X186.75Y-102.75
T3
X188.5Y-82.75
X188.5Y-87.83
T4
X113.63Y-105.92
X126.77Y-105.92
X142.23Y-105.92
X155.37Y-105.92
X170.43Y-105.92
X183.57Y-105.92
T5
X110.0Y-70.5
X110.0Y-107.0
X187.5Y-70.5
X187.5Y-107.0
T6
X148.75Y-68.0
X154.53Y-68.0
T2
X147.32Y-64.65G85X147.32Y-64.05
G05
X147.32Y-69.08G85X147.32Y-67.98
G05
X155.96Y-64.65G85X155.96Y-64.05
G05
X155.96Y-69.08G85X155.96Y-67.98
G05
M30
