%TF.GenerationSoftware,KiCad,Pcbnew,10.0.6*%
%TF.CreationDate,2026-09-24T17:44:22+00:00*%
%TF.ProjectId,ykush_vg,796b7573-685f-4766-972e-6b696361645f,rev?*%
%TF.SameCoordinates,Original*%
%TF.FileFunction,Copper,L2,Bot*%
%TF.FilePolarity,Positive*%
%FSLAX46Y46*%
G04 Gerber Fmt 4.6, Leading zero omitted, Abs format (unit mm)*
G04 Created by KiCad (PCBNEW 10.0.6) date 2026-09-24 17:44:22*
%MOMM*%
%LPD*%
G01*
G04 APERTURE LIST*
G04 Aperture macros list*
%AMRoundRect*
0 Rectangle with rounded corners*
0 $1 Rounding radius*
0 $2 $3 $4 $5 $6 $7 $8 $9 X,Y pos of 4 corners*
0 Add a 4 corners polygon primitive as box body*
4,1,4,$2,$3,$4,$5,$6,$7,$8,$9,$2,$3,0*
0 Add four circle primitives for the rounded corners*
1,1,$1+$1,$2,$3*
1,1,$1+$1,$4,$5*
1,1,$1+$1,$6,$7*
1,1,$1+$1,$8,$9*
0 Add four rect primitives between the rounded corners*
20,1,$1+$1,$2,$3,$4,$5,0*
20,1,$1+$1,$4,$5,$6,$7,0*
20,1,$1+$1,$6,$7,$8,$9,0*
20,1,$1+$1,$8,$9,$2,$3,0*%
G04 Aperture macros list end*
%TA.AperFunction,ComponentPad*%
%ADD10C,3.000000*%
%TD*%
%TA.AperFunction,ComponentPad*%
%ADD11O,1.000000X2.100000*%
%TD*%
%TA.AperFunction,ComponentPad*%
%ADD12O,1.000000X1.600000*%
%TD*%
%TA.AperFunction,ComponentPad*%
%ADD13RoundRect,0.250000X-1.050000X1.050000X-1.050000X-1.050000X1.050000X-1.050000X1.050000X1.050000X0*%
%TD*%
%TA.AperFunction,ComponentPad*%
%ADD14C,2.600000*%
%TD*%
%TA.AperFunction,ViaPad*%
%ADD15C,0.600000*%
%TD*%
%TA.AperFunction,ViaPad*%
%ADD16C,4.500000*%
%TD*%
%TA.AperFunction,Conductor*%
%ADD17C,0.800000*%
%TD*%
%TA.AperFunction,Conductor*%
%ADD18C,0.600000*%
%TD*%
%TA.AperFunction,Conductor*%
%ADD19C,0.250000*%
%TD*%
G04 APERTURE END LIST*
D10*
%TO.P,J2,SH*%
%TO.N,/GND*%
X113629999Y-105920000D03*
X126769999Y-105920000D03*
%TD*%
D11*
%TO.P,J1,SH*%
%TO.N,/GND*%
X155960000Y-68529999D03*
D12*
X155960000Y-64349999D03*
D11*
X147320000Y-68529999D03*
D12*
X147320000Y-64349999D03*
%TD*%
D13*
%TO.P,J5,1*%
%TO.N,/EXT_5V_IN*%
X188500000Y-82750000D03*
D14*
%TO.P,J5,2*%
%TO.N,/GND*%
X188500000Y-87830000D03*
%TD*%
D10*
%TO.P,J3,SH*%
%TO.N,/GND*%
X142230000Y-105920000D03*
X155370000Y-105920000D03*
%TD*%
%TO.P,J4,SH*%
%TO.N,/GND*%
X170430000Y-105920000D03*
X183570000Y-105920000D03*
%TD*%
D15*
%TO.N,/VBUS_UP*%
X157750000Y-68250000D03*
%TO.N,/GND*%
X110750000Y-84750000D03*
X186750000Y-78750000D03*
X147750000Y-109250000D03*
X110750000Y-80750000D03*
X125750000Y-68250000D03*
X133750000Y-100750000D03*
X129750000Y-80750000D03*
X127750000Y-80750000D03*
X135750000Y-109250000D03*
X161750000Y-68250000D03*
X167750000Y-96750000D03*
X186750000Y-102750000D03*
X123750000Y-78750000D03*
X165750000Y-96750000D03*
X157750000Y-109250000D03*
X186750000Y-74750000D03*
X181750000Y-109250000D03*
X169750000Y-80750000D03*
X167750000Y-76750000D03*
X113750000Y-109250000D03*
X167750000Y-80750000D03*
X167750000Y-109250000D03*
X115750000Y-68250000D03*
X133750000Y-98750000D03*
X183750000Y-109250000D03*
X129750000Y-88750000D03*
X110750000Y-76750000D03*
X110750000Y-74750000D03*
X127750000Y-76750000D03*
X125750000Y-109250000D03*
X110750000Y-98750000D03*
X186750000Y-98750000D03*
X165750000Y-100750000D03*
X171750000Y-78750000D03*
X127750000Y-88750000D03*
X110750000Y-92750000D03*
X165750000Y-76750000D03*
X131750000Y-88750000D03*
X110750000Y-88750000D03*
X173750000Y-109250000D03*
X133750000Y-109250000D03*
X167750000Y-100750000D03*
X123750000Y-68250000D03*
X129750000Y-76750000D03*
X137750000Y-68250000D03*
X175750000Y-68250000D03*
X186750000Y-88750000D03*
X169750000Y-76750000D03*
X141750000Y-109250000D03*
X186750000Y-92750000D03*
X115750000Y-109250000D03*
X139750000Y-109250000D03*
X147750000Y-68250000D03*
X186750000Y-86750000D03*
X179750000Y-68250000D03*
X169750000Y-78750000D03*
X171750000Y-68250000D03*
X165750000Y-109250000D03*
X161750000Y-109250000D03*
X179750000Y-109250000D03*
X131750000Y-78750000D03*
X129750000Y-78750000D03*
X125750000Y-76750000D03*
X131750000Y-68250000D03*
X127750000Y-98750000D03*
X169750000Y-109250000D03*
D16*
X187500000Y-70500000D03*
D15*
X173750000Y-68250000D03*
X181750000Y-68250000D03*
X110750000Y-82750000D03*
X110750000Y-86750000D03*
X135750000Y-78750000D03*
X163750000Y-98750000D03*
X123750000Y-98750000D03*
D16*
X110000000Y-70500000D03*
D15*
X177750000Y-68250000D03*
X110750000Y-102750000D03*
X127750000Y-100750000D03*
X173750000Y-78750000D03*
X143750000Y-109250000D03*
X110750000Y-90750000D03*
X125750000Y-100750000D03*
X153750000Y-68250000D03*
X163750000Y-100750000D03*
X135750000Y-68250000D03*
X123750000Y-109250000D03*
X113750000Y-68250000D03*
X117750000Y-68250000D03*
X143750000Y-68250000D03*
X131750000Y-100750000D03*
X165750000Y-98750000D03*
X129750000Y-109250000D03*
X173750000Y-98750000D03*
X167750000Y-98750000D03*
X139750000Y-68250000D03*
X186750000Y-76750000D03*
X119750000Y-68250000D03*
X167750000Y-78750000D03*
X165750000Y-78750000D03*
X129750000Y-68250000D03*
X177750000Y-109250000D03*
X186750000Y-100750000D03*
X163750000Y-80750000D03*
X129750000Y-100750000D03*
X155750000Y-68250000D03*
X125750000Y-78750000D03*
X165750000Y-68250000D03*
X186750000Y-84750000D03*
X110750000Y-100750000D03*
X127750000Y-78750000D03*
X131750000Y-109250000D03*
X183750000Y-68250000D03*
X137750000Y-109250000D03*
X110750000Y-78750000D03*
X163750000Y-76750000D03*
X165750000Y-80750000D03*
X121750000Y-68250000D03*
X110750000Y-94750000D03*
X155750000Y-109250000D03*
X171750000Y-109250000D03*
X159750000Y-109250000D03*
X117750000Y-109250000D03*
X167750000Y-68250000D03*
X171750000Y-96750000D03*
X163750000Y-68250000D03*
X169750000Y-68250000D03*
X135750000Y-98750000D03*
X133750000Y-68250000D03*
D16*
X110000000Y-107000000D03*
D15*
X127750000Y-68250000D03*
X125750000Y-80750000D03*
X151750000Y-109250000D03*
X175750000Y-109250000D03*
X171750000Y-76750000D03*
D16*
X187500000Y-107000000D03*
D15*
X159750000Y-68250000D03*
X131750000Y-98750000D03*
X161750000Y-78750000D03*
X186750000Y-82750000D03*
X145750000Y-109250000D03*
X110750000Y-96750000D03*
X127750000Y-109250000D03*
X163750000Y-78750000D03*
X129750000Y-98750000D03*
%TO.N,/+5V_PORT*%
X119750000Y-109250000D03*
X186750000Y-94750000D03*
X121750000Y-109250000D03*
X165750000Y-88750000D03*
X171750000Y-80750000D03*
X186750000Y-90750000D03*
X163750000Y-96750000D03*
%TO.N,/VBUS_P3*%
X169750000Y-96750000D03*
X171750000Y-98750000D03*
X169750000Y-88750000D03*
X169750000Y-100750000D03*
%TO.N,/EXT_5V_IN*%
X186750000Y-80750000D03*
%TO.N,/UP_DP*%
X151750000Y-68250000D03*
%TO.N,/CC2*%
X149750000Y-68250000D03*
X145750000Y-68250000D03*
%TO.N,/P1_DM*%
X125750000Y-98750000D03*
X129750000Y-90750000D03*
%TO.N,/P1_DP*%
X125750000Y-96750000D03*
X127750000Y-96750000D03*
X131750000Y-96750000D03*
X129750000Y-96750000D03*
%TO.N,/P2_DP*%
X153750000Y-109250000D03*
X149750000Y-109250000D03*
X163750000Y-109250000D03*
%TO.N,/P3_DP*%
X167750000Y-90750000D03*
%TO.N,/EN2*%
X141750000Y-68250000D03*
X133750000Y-96750000D03*
%TO.N,/ISET3*%
X167750000Y-88750000D03*
X171750000Y-100750000D03*
X169750000Y-98750000D03*
%TO.N,/EN3*%
X167750000Y-86750000D03*
X186750000Y-96750000D03*
X131750000Y-76750000D03*
%TO.N,/LED_STAT*%
X161750000Y-98750000D03*
X133750000Y-80750000D03*
%TO.N,/MCU_DM*%
X133750000Y-78750000D03*
X129750000Y-86750000D03*
X133750000Y-76750000D03*
X131750000Y-80750000D03*
%TD*%
%TO.N,/+5V_PORT*%
D17*
X165800000Y-94699999D02*
X165800000Y-88700000D01*
X163800000Y-96699999D02*
X165800000Y-94699999D01*
%TO.N,/VBUS_P3*%
D18*
X169800000Y-88700000D02*
X169800000Y-96699999D01*
%TO.N,/EXT_5V_IN*%
D17*
X186800000Y-80800000D02*
X186800000Y-81000000D01*
X186800000Y-81000000D02*
X187300000Y-81500000D01*
%TO.N,/P1_DM*%
D19*
X129800000Y-90700000D02*
X129800000Y-93699999D01*
X129800000Y-93699999D02*
X125800000Y-97699999D01*
X125800000Y-97699999D02*
X125800000Y-98699999D01*
%TO.N,/P2_DP*%
X152800000Y-109300000D02*
X152200000Y-109900000D01*
X150400000Y-109900000D02*
X149800000Y-109300000D01*
X152200000Y-109900000D02*
X150400000Y-109900000D01*
X153800000Y-109300000D02*
X152800000Y-109300000D01*
%TO.N,/EN2*%
X133100000Y-96000000D02*
X133100000Y-76400000D01*
X133100000Y-76400000D02*
X141200000Y-68300000D01*
X133800000Y-96699999D02*
X133100000Y-96000000D01*
X141200000Y-68300000D02*
X141800000Y-68300000D01*
%TO.N,/ISET3*%
X167800000Y-89800000D02*
X169100000Y-91100000D01*
X167800000Y-88700000D02*
X167800000Y-89800000D01*
X169100000Y-91100000D02*
X169100000Y-98000000D01*
X169800000Y-98699999D02*
X169750000Y-98750000D01*
X169100000Y-98000000D02*
X171800000Y-100700000D01*
%TO.N,/EN3*%
X163300000Y-86800000D02*
X144100000Y-67600000D01*
X167800000Y-86800000D02*
X167750000Y-86750000D01*
X186800000Y-96600000D02*
X177000000Y-86800000D01*
X177000000Y-86800000D02*
X167800000Y-86800000D01*
X131800000Y-75200000D02*
X131800000Y-76800000D01*
X144100000Y-67600000D02*
X139400000Y-67600000D01*
X167800000Y-86800000D02*
X163300000Y-86800000D01*
X139400000Y-67600000D02*
X131800000Y-75200000D01*
X186800000Y-96699999D02*
X186800000Y-96600000D01*
%TO.N,/LED_STAT*%
X144000000Y-80900000D02*
X133900000Y-80900000D01*
X161800000Y-98699999D02*
X144000000Y-80900000D01*
X133900000Y-80900000D02*
X133800000Y-80800000D01*
%TO.N,/MCU_DM*%
X129800000Y-82800000D02*
X131800000Y-80800000D01*
X129800000Y-86800000D02*
X129800000Y-82800000D01*
X133800000Y-78800000D02*
X133800000Y-76800000D01*
%TD*%
%TA.AperFunction,Conductor*%
%TO.N,/GND*%
G36*
X193358691Y-61619407D02*
G01*
X193394655Y-61668907D01*
X193399500Y-61699500D01*
X193399500Y-115800500D01*
X193380593Y-115858691D01*
X193331093Y-115894655D01*
X193300500Y-115899500D01*
X104199500Y-115899500D01*
X104141309Y-115880593D01*
X104105345Y-115831093D01*
X104100500Y-115800500D01*
X104100500Y-109184108D01*
X119249500Y-109184108D01*
X119249500Y-109315892D01*
X119279579Y-109428151D01*
X119283609Y-109443190D01*
X119349496Y-109557309D01*
X119349498Y-109557311D01*
X119349500Y-109557314D01*
X119442686Y-109650500D01*
X119442688Y-109650501D01*
X119442690Y-109650503D01*
X119556810Y-109716390D01*
X119556808Y-109716390D01*
X119556812Y-109716391D01*
X119556814Y-109716392D01*
X119684108Y-109750500D01*
X119684110Y-109750500D01*
X119815890Y-109750500D01*
X119815892Y-109750500D01*
X119943186Y-109716392D01*
X119943188Y-109716390D01*
X119943190Y-109716390D01*
X120057309Y-109650503D01*
X120057309Y-109650502D01*
X120057314Y-109650500D01*
X120150500Y-109557314D01*
X120216392Y-109443186D01*
X120250500Y-109315892D01*
X120250500Y-109184108D01*
X121249500Y-109184108D01*
X121249500Y-109315892D01*
X121279579Y-109428151D01*
X121283609Y-109443190D01*
X121349496Y-109557309D01*
X121349498Y-109557311D01*
X121349500Y-109557314D01*
X121442686Y-109650500D01*
X121442688Y-109650501D01*
X121442690Y-109650503D01*
X121556810Y-109716390D01*
X121556808Y-109716390D01*
X121556812Y-109716391D01*
X121556814Y-109716392D01*
X121684108Y-109750500D01*
X121684110Y-109750500D01*
X121815890Y-109750500D01*
X121815892Y-109750500D01*
X121943186Y-109716392D01*
X121943188Y-109716390D01*
X121943190Y-109716390D01*
X122057309Y-109650503D01*
X122057309Y-109650502D01*
X122057314Y-109650500D01*
X122150500Y-109557314D01*
X122216392Y-109443186D01*
X122250500Y-109315892D01*
X122250500Y-109184108D01*
X149249500Y-109184108D01*
X149249500Y-109315892D01*
X149279579Y-109428151D01*
X149283609Y-109443190D01*
X149349496Y-109557309D01*
X149349498Y-109557311D01*
X149349500Y-109557314D01*
X149442686Y-109650500D01*
X149442688Y-109650501D01*
X149442690Y-109650503D01*
X149556810Y-109716390D01*
X149556808Y-109716390D01*
X149556812Y-109716391D01*
X149556814Y-109716392D01*
X149684108Y-109750500D01*
X149749165Y-109750500D01*
X149807356Y-109769407D01*
X149819168Y-109779496D01*
X150200137Y-110160464D01*
X150200142Y-110160468D01*
X150274357Y-110203316D01*
X150274355Y-110203316D01*
X150274359Y-110203317D01*
X150274361Y-110203318D01*
X150357147Y-110225500D01*
X150357149Y-110225500D01*
X152242851Y-110225500D01*
X152242853Y-110225500D01*
X152325639Y-110203318D01*
X152325641Y-110203316D01*
X152325643Y-110203316D01*
X152399857Y-110160468D01*
X152399857Y-110160467D01*
X152399862Y-110160465D01*
X152905831Y-109654496D01*
X152960348Y-109626719D01*
X152975835Y-109625500D01*
X153376679Y-109625500D01*
X153434870Y-109644407D01*
X153437476Y-109646633D01*
X153437540Y-109646551D01*
X153442690Y-109650503D01*
X153556810Y-109716390D01*
X153556808Y-109716390D01*
X153556812Y-109716391D01*
X153556814Y-109716392D01*
X153684108Y-109750500D01*
X153684110Y-109750500D01*
X153815890Y-109750500D01*
X153815892Y-109750500D01*
X153943186Y-109716392D01*
X153943188Y-109716390D01*
X153943190Y-109716390D01*
X154057309Y-109650503D01*
X154057309Y-109650502D01*
X154057314Y-109650500D01*
X154150500Y-109557314D01*
X154216392Y-109443186D01*
X154250500Y-109315892D01*
X154250500Y-109184108D01*
X163249500Y-109184108D01*
X163249500Y-109315892D01*
X163279579Y-109428151D01*
X163283609Y-109443190D01*
X163349496Y-109557309D01*
X163349498Y-109557311D01*
X163349500Y-109557314D01*
X163442686Y-109650500D01*
X163442688Y-109650501D01*
X163442690Y-109650503D01*
X163556810Y-109716390D01*
X163556808Y-109716390D01*
X163556812Y-109716391D01*
X163556814Y-109716392D01*
X163684108Y-109750500D01*
X163684110Y-109750500D01*
X163815890Y-109750500D01*
X163815892Y-109750500D01*
X163943186Y-109716392D01*
X163943188Y-109716390D01*
X163943190Y-109716390D01*
X164057309Y-109650503D01*
X164057309Y-109650502D01*
X164057314Y-109650500D01*
X164150500Y-109557314D01*
X164216392Y-109443186D01*
X164250500Y-109315892D01*
X164250500Y-109184108D01*
X164216392Y-109056814D01*
X164216390Y-109056811D01*
X164216390Y-109056809D01*
X164150503Y-108942690D01*
X164150501Y-108942688D01*
X164150500Y-108942686D01*
X164057314Y-108849500D01*
X164057311Y-108849498D01*
X164057309Y-108849496D01*
X163943189Y-108783609D01*
X163943191Y-108783609D01*
X163893799Y-108770375D01*
X163815892Y-108749500D01*
X163684108Y-108749500D01*
X163606200Y-108770375D01*
X163556809Y-108783609D01*
X163442690Y-108849496D01*
X163349496Y-108942690D01*
X163283609Y-109056809D01*
X163283608Y-109056814D01*
X163249500Y-109184108D01*
X154250500Y-109184108D01*
X154216392Y-109056814D01*
X154216390Y-109056811D01*
X154216390Y-109056809D01*
X154150503Y-108942690D01*
X154150501Y-108942688D01*
X154150500Y-108942686D01*
X154057314Y-108849500D01*
X154057311Y-108849498D01*
X154057309Y-108849496D01*
X153943189Y-108783609D01*
X153943191Y-108783609D01*
X153893799Y-108770375D01*
X153815892Y-108749500D01*
X153684108Y-108749500D01*
X153606200Y-108770375D01*
X153556809Y-108783609D01*
X153442690Y-108849496D01*
X153442689Y-108849497D01*
X153442686Y-108849499D01*
X153442686Y-108849500D01*
X153349500Y-108942686D01*
X153349498Y-108942688D01*
X153346683Y-108945504D01*
X153292166Y-108973281D01*
X153276679Y-108974500D01*
X152842853Y-108974500D01*
X152757147Y-108974500D01*
X152706478Y-108988076D01*
X152674356Y-108996683D01*
X152600142Y-109039531D01*
X152094169Y-109545504D01*
X152039652Y-109573281D01*
X152024165Y-109574500D01*
X150575835Y-109574500D01*
X150517644Y-109555593D01*
X150505831Y-109545504D01*
X150279496Y-109319169D01*
X150251719Y-109264652D01*
X150250500Y-109249165D01*
X150250500Y-109184109D01*
X150250500Y-109184108D01*
X150216392Y-109056814D01*
X150216390Y-109056811D01*
X150216390Y-109056809D01*
X150150503Y-108942690D01*
X150150501Y-108942688D01*
X150150500Y-108942686D01*
X150057314Y-108849500D01*
X150057311Y-108849498D01*
X150057309Y-108849496D01*
X149943189Y-108783609D01*
X149943191Y-108783609D01*
X149893799Y-108770375D01*
X149815892Y-108749500D01*
X149684108Y-108749500D01*
X149606200Y-108770375D01*
X149556809Y-108783609D01*
X149442690Y-108849496D01*
X149349496Y-108942690D01*
X149283609Y-109056809D01*
X149283608Y-109056814D01*
X149249500Y-109184108D01*
X122250500Y-109184108D01*
X122216392Y-109056814D01*
X122216390Y-109056811D01*
X122216390Y-109056809D01*
X122150503Y-108942690D01*
X122150501Y-108942688D01*
X122150500Y-108942686D01*
X122057314Y-108849500D01*
X122057311Y-108849498D01*
X122057309Y-108849496D01*
X121943189Y-108783609D01*
X121943191Y-108783609D01*
X121893799Y-108770375D01*
X121815892Y-108749500D01*
X121684108Y-108749500D01*
X121606200Y-108770375D01*
X121556809Y-108783609D01*
X121442690Y-108849496D01*
X121349496Y-108942690D01*
X121283609Y-109056809D01*
X121283608Y-109056814D01*
X121249500Y-109184108D01*
X120250500Y-109184108D01*
X120216392Y-109056814D01*
X120216390Y-109056811D01*
X120216390Y-109056809D01*
X120150503Y-108942690D01*
X120150501Y-108942688D01*
X120150500Y-108942686D01*
X120057314Y-108849500D01*
X120057311Y-108849498D01*
X120057309Y-108849496D01*
X119943189Y-108783609D01*
X119943191Y-108783609D01*
X119893799Y-108770375D01*
X119815892Y-108749500D01*
X119684108Y-108749500D01*
X119606200Y-108770375D01*
X119556809Y-108783609D01*
X119442690Y-108849496D01*
X119349496Y-108942690D01*
X119283609Y-109056809D01*
X119283608Y-109056814D01*
X119249500Y-109184108D01*
X104100500Y-109184108D01*
X104100500Y-105805297D01*
X111879999Y-105805297D01*
X111879999Y-106034702D01*
X111909941Y-106262133D01*
X111909941Y-106262138D01*
X111969314Y-106483718D01*
X111969318Y-106483731D01*
X112057100Y-106695658D01*
X112171804Y-106894332D01*
X112289782Y-107048083D01*
X112717422Y-106620442D01*
X112752828Y-106669175D01*
X112880824Y-106797171D01*
X112929554Y-106832575D01*
X112501914Y-107260216D01*
X112655666Y-107378194D01*
X112854340Y-107492898D01*
X113066267Y-107580680D01*
X113066280Y-107580684D01*
X113287862Y-107640057D01*
X113515296Y-107669999D01*
X113515299Y-107670000D01*
X113744699Y-107670000D01*
X113744701Y-107669999D01*
X113972132Y-107640057D01*
X113972137Y-107640057D01*
X114193717Y-107580684D01*
X114193730Y-107580680D01*
X114405657Y-107492898D01*
X114604341Y-107378188D01*
X114758082Y-107260216D01*
X114330442Y-106832576D01*
X114379174Y-106797171D01*
X114507170Y-106669175D01*
X114542575Y-106620443D01*
X114970215Y-107048083D01*
X115088187Y-106894342D01*
X115202897Y-106695658D01*
X115290679Y-106483731D01*
X115290683Y-106483718D01*
X115350056Y-106262138D01*
X115350056Y-106262133D01*
X115379998Y-106034702D01*
X115379999Y-106034700D01*
X115379999Y-105805300D01*
X115379998Y-105805297D01*
X125019999Y-105805297D01*
X125019999Y-106034702D01*
X125049941Y-106262133D01*
X125049941Y-106262138D01*
X125109314Y-106483718D01*
X125109318Y-106483731D01*
X125197100Y-106695658D01*
X125311804Y-106894332D01*
X125429782Y-107048083D01*
X125857422Y-106620442D01*
X125892828Y-106669175D01*
X126020824Y-106797171D01*
X126069554Y-106832575D01*
X125641914Y-107260216D01*
X125795666Y-107378194D01*
X125994340Y-107492898D01*
X126206267Y-107580680D01*
X126206280Y-107580684D01*
X126427862Y-107640057D01*
X126655296Y-107669999D01*
X126655299Y-107670000D01*
X126884699Y-107670000D01*
X126884701Y-107669999D01*
X127112132Y-107640057D01*
X127112137Y-107640057D01*
X127333717Y-107580684D01*
X127333730Y-107580680D01*
X127545657Y-107492898D01*
X127744341Y-107378188D01*
X127898082Y-107260216D01*
X127470442Y-106832576D01*
X127519174Y-106797171D01*
X127647170Y-106669175D01*
X127682575Y-106620443D01*
X128110215Y-107048083D01*
X128228187Y-106894342D01*
X128342897Y-106695658D01*
X128430679Y-106483731D01*
X128430683Y-106483718D01*
X128490056Y-106262138D01*
X128490056Y-106262133D01*
X128519998Y-106034702D01*
X128519999Y-106034700D01*
X128519999Y-105805300D01*
X128519998Y-105805297D01*
X140480000Y-105805297D01*
X140480000Y-106034702D01*
X140509942Y-106262133D01*
X140509942Y-106262138D01*
X140569315Y-106483718D01*
X140569319Y-106483731D01*
X140657101Y-106695658D01*
X140771805Y-106894332D01*
X140889783Y-107048083D01*
X141317423Y-106620442D01*
X141352829Y-106669175D01*
X141480825Y-106797171D01*
X141529555Y-106832575D01*
X141101915Y-107260216D01*
X141255667Y-107378194D01*
X141454341Y-107492898D01*
X141666268Y-107580680D01*
X141666281Y-107580684D01*
X141887863Y-107640057D01*
X142115297Y-107669999D01*
X142115300Y-107670000D01*
X142344700Y-107670000D01*
X142344702Y-107669999D01*
X142572133Y-107640057D01*
X142572138Y-107640057D01*
X142793718Y-107580684D01*
X142793731Y-107580680D01*
X143005658Y-107492898D01*
X143204342Y-107378188D01*
X143358083Y-107260216D01*
X142930443Y-106832576D01*
X142979175Y-106797171D01*
X143107171Y-106669175D01*
X143142576Y-106620443D01*
X143570216Y-107048083D01*
X143688188Y-106894342D01*
X143802898Y-106695658D01*
X143890680Y-106483731D01*
X143890684Y-106483718D01*
X143950057Y-106262138D01*
X143950057Y-106262133D01*
X143979999Y-106034702D01*
X143980000Y-106034700D01*
X143980000Y-105805300D01*
X143979999Y-105805297D01*
X153620000Y-105805297D01*
X153620000Y-106034702D01*
X153649942Y-106262133D01*
X153649942Y-106262138D01*
X153709315Y-106483718D01*
X153709319Y-106483731D01*
X153797101Y-106695658D01*
X153911805Y-106894332D01*
X154029782Y-107048082D01*
X154457422Y-106620441D01*
X154492829Y-106669175D01*
X154620825Y-106797171D01*
X154669555Y-106832575D01*
X154241915Y-107260216D01*
X154395667Y-107378194D01*
X154594341Y-107492898D01*
X154806268Y-107580680D01*
X154806281Y-107580684D01*
X155027863Y-107640057D01*
X155255297Y-107669999D01*
X155255300Y-107670000D01*
X155484700Y-107670000D01*
X155484702Y-107669999D01*
X155712133Y-107640057D01*
X155712138Y-107640057D01*
X155933718Y-107580684D01*
X155933731Y-107580680D01*
X156145658Y-107492898D01*
X156344342Y-107378188D01*
X156498083Y-107260216D01*
X156070443Y-106832576D01*
X156119175Y-106797171D01*
X156247171Y-106669175D01*
X156282576Y-106620443D01*
X156710216Y-107048083D01*
X156828188Y-106894342D01*
X156942898Y-106695658D01*
X157030680Y-106483731D01*
X157030684Y-106483718D01*
X157090057Y-106262138D01*
X157090057Y-106262133D01*
X157119999Y-106034702D01*
X157120000Y-106034700D01*
X157120000Y-105805300D01*
X157119999Y-105805297D01*
X168680000Y-105805297D01*
X168680000Y-106034702D01*
X168709942Y-106262133D01*
X168709942Y-106262138D01*
X168769315Y-106483718D01*
X168769319Y-106483731D01*
X168857101Y-106695658D01*
X168971805Y-106894332D01*
X169089783Y-107048083D01*
X169517423Y-106620442D01*
X169552829Y-106669175D01*
X169680825Y-106797171D01*
X169729555Y-106832575D01*
X169301915Y-107260216D01*
X169455667Y-107378194D01*
X169654341Y-107492898D01*
X169866268Y-107580680D01*
X169866281Y-107580684D01*
X170087863Y-107640057D01*
X170315297Y-107669999D01*
X170315300Y-107670000D01*
X170544700Y-107670000D01*
X170544702Y-107669999D01*
X170772133Y-107640057D01*
X170772138Y-107640057D01*
X170993718Y-107580684D01*
X170993731Y-107580680D01*
X171205658Y-107492898D01*
X171404342Y-107378188D01*
X171558083Y-107260216D01*
X171130443Y-106832576D01*
X171179175Y-106797171D01*
X171307171Y-106669175D01*
X171342576Y-106620443D01*
X171770216Y-107048083D01*
X171888188Y-106894342D01*
X172002898Y-106695658D01*
X172090680Y-106483731D01*
X172090684Y-106483718D01*
X172150057Y-106262138D01*
X172150057Y-106262133D01*
X172179999Y-106034702D01*
X172180000Y-106034700D01*
X172180000Y-105805300D01*
X172179999Y-105805297D01*
X181820000Y-105805297D01*
X181820000Y-106034702D01*
X181849942Y-106262133D01*
X181849942Y-106262138D01*
X181909315Y-106483718D01*
X181909319Y-106483731D01*
X181997101Y-106695658D01*
X182111805Y-106894332D01*
X182229783Y-107048083D01*
X182657423Y-106620442D01*
X182692829Y-106669175D01*
X182820825Y-106797171D01*
X182869555Y-106832575D01*
X182441915Y-107260216D01*
X182595667Y-107378194D01*
X182794341Y-107492898D01*
X183006268Y-107580680D01*
X183006281Y-107580684D01*
X183227863Y-107640057D01*
X183455297Y-107669999D01*
X183455300Y-107670000D01*
X183684700Y-107670000D01*
X183684702Y-107669999D01*
X183912133Y-107640057D01*
X183912138Y-107640057D01*
X184133718Y-107580684D01*
X184133731Y-107580680D01*
X184345658Y-107492898D01*
X184544342Y-107378188D01*
X184698083Y-107260216D01*
X184270443Y-106832576D01*
X184319175Y-106797171D01*
X184447171Y-106669175D01*
X184482576Y-106620443D01*
X184910216Y-107048083D01*
X185028188Y-106894342D01*
X185142898Y-106695658D01*
X185230680Y-106483731D01*
X185230684Y-106483718D01*
X185290057Y-106262138D01*
X185290057Y-106262133D01*
X185319999Y-106034702D01*
X185320000Y-106034700D01*
X185320000Y-105805300D01*
X185319999Y-105805297D01*
X185290057Y-105577866D01*
X185290057Y-105577861D01*
X185230684Y-105356281D01*
X185230680Y-105356268D01*
X185142898Y-105144341D01*
X185028194Y-104945667D01*
X184910215Y-104791915D01*
X184482575Y-105219555D01*
X184447171Y-105170825D01*
X184319175Y-105042829D01*
X184270442Y-105007423D01*
X184698083Y-104579783D01*
X184544332Y-104461805D01*
X184345658Y-104347101D01*
X184133731Y-104259319D01*
X184133718Y-104259315D01*
X183912136Y-104199942D01*
X183684702Y-104170000D01*
X183455297Y-104170000D01*
X183227866Y-104199942D01*
X183227861Y-104199942D01*
X183006281Y-104259315D01*
X183006268Y-104259319D01*
X182794341Y-104347101D01*
X182595662Y-104461808D01*
X182441915Y-104579782D01*
X182869556Y-105007423D01*
X182820825Y-105042829D01*
X182692829Y-105170825D01*
X182657423Y-105219556D01*
X182229782Y-104791915D01*
X182111808Y-104945662D01*
X181997101Y-105144341D01*
X181909319Y-105356268D01*
X181909315Y-105356281D01*
X181849942Y-105577861D01*
X181849942Y-105577866D01*
X181820000Y-105805297D01*
X172179999Y-105805297D01*
X172150057Y-105577866D01*
X172150057Y-105577861D01*
X172090684Y-105356281D01*
X172090680Y-105356268D01*
X172002898Y-105144341D01*
X171888194Y-104945667D01*
X171770215Y-104791915D01*
X171342575Y-105219555D01*
X171307171Y-105170825D01*
X171179175Y-105042829D01*
X171130442Y-105007423D01*
X171558083Y-104579783D01*
X171404332Y-104461805D01*
X171205658Y-104347101D01*
X170993731Y-104259319D01*
X170993718Y-104259315D01*
X170772136Y-104199942D01*
X170544702Y-104170000D01*
X170315297Y-104170000D01*
X170087866Y-104199942D01*
X170087861Y-104199942D01*
X169866281Y-104259315D01*
X169866268Y-104259319D01*
X169654341Y-104347101D01*
X169455662Y-104461808D01*
X169301915Y-104579782D01*
X169729556Y-105007423D01*
X169680825Y-105042829D01*
X169552829Y-105170825D01*
X169517423Y-105219556D01*
X169089782Y-104791915D01*
X168971808Y-104945662D01*
X168857101Y-105144341D01*
X168769319Y-105356268D01*
X168769315Y-105356281D01*
X168709942Y-105577861D01*
X168709942Y-105577866D01*
X168680000Y-105805297D01*
X157119999Y-105805297D01*
X157090057Y-105577866D01*
X157090057Y-105577861D01*
X157030684Y-105356281D01*
X157030680Y-105356268D01*
X156942898Y-105144341D01*
X156828194Y-104945667D01*
X156710215Y-104791915D01*
X156282575Y-105219555D01*
X156247171Y-105170825D01*
X156119175Y-105042829D01*
X156070442Y-105007423D01*
X156498083Y-104579783D01*
X156344332Y-104461805D01*
X156145658Y-104347101D01*
X155933731Y-104259319D01*
X155933718Y-104259315D01*
X155712136Y-104199942D01*
X155484702Y-104170000D01*
X155255297Y-104170000D01*
X155027866Y-104199942D01*
X155027861Y-104199942D01*
X154806281Y-104259315D01*
X154806268Y-104259319D01*
X154594341Y-104347101D01*
X154395662Y-104461808D01*
X154241915Y-104579782D01*
X154669556Y-105007423D01*
X154620825Y-105042829D01*
X154492829Y-105170825D01*
X154457423Y-105219556D01*
X154029782Y-104791915D01*
X153911808Y-104945662D01*
X153797101Y-105144341D01*
X153709319Y-105356268D01*
X153709315Y-105356281D01*
X153649942Y-105577861D01*
X153649942Y-105577866D01*
X153620000Y-105805297D01*
X143979999Y-105805297D01*
X143950057Y-105577866D01*
X143950057Y-105577861D01*
X143890684Y-105356281D01*
X143890680Y-105356268D01*
X143802898Y-105144341D01*
X143688194Y-104945667D01*
X143570215Y-104791915D01*
X143142575Y-105219555D01*
X143107171Y-105170825D01*
X142979175Y-105042829D01*
X142930442Y-105007423D01*
X143358083Y-104579783D01*
X143204332Y-104461805D01*
X143005658Y-104347101D01*
X142793731Y-104259319D01*
X142793718Y-104259315D01*
X142572136Y-104199942D01*
X142344702Y-104170000D01*
X142115297Y-104170000D01*
X141887866Y-104199942D01*
X141887861Y-104199942D01*
X141666281Y-104259315D01*
X141666268Y-104259319D01*
X141454341Y-104347101D01*
X141255662Y-104461808D01*
X141101915Y-104579782D01*
X141529556Y-105007423D01*
X141480825Y-105042829D01*
X141352829Y-105170825D01*
X141317423Y-105219556D01*
X140889782Y-104791915D01*
X140771808Y-104945662D01*
X140657101Y-105144341D01*
X140569319Y-105356268D01*
X140569315Y-105356281D01*
X140509942Y-105577861D01*
X140509942Y-105577866D01*
X140480000Y-105805297D01*
X128519998Y-105805297D01*
X128490056Y-105577866D01*
X128490056Y-105577861D01*
X128430683Y-105356281D01*
X128430679Y-105356268D01*
X128342897Y-105144341D01*
X128228193Y-104945667D01*
X128110214Y-104791915D01*
X127682574Y-105219555D01*
X127647170Y-105170825D01*
X127519174Y-105042829D01*
X127470441Y-105007423D01*
X127898082Y-104579783D01*
X127744331Y-104461805D01*
X127545657Y-104347101D01*
X127333730Y-104259319D01*
X127333717Y-104259315D01*
X127112135Y-104199942D01*
X126884701Y-104170000D01*
X126655296Y-104170000D01*
X126427865Y-104199942D01*
X126427860Y-104199942D01*
X126206280Y-104259315D01*
X126206267Y-104259319D01*
X125994340Y-104347101D01*
X125795661Y-104461808D01*
X125641914Y-104579782D01*
X126069555Y-105007423D01*
X126020824Y-105042829D01*
X125892828Y-105170825D01*
X125857422Y-105219556D01*
X125429781Y-104791915D01*
X125311807Y-104945662D01*
X125197100Y-105144341D01*
X125109318Y-105356268D01*
X125109314Y-105356281D01*
X125049941Y-105577861D01*
X125049941Y-105577866D01*
X125019999Y-105805297D01*
X115379998Y-105805297D01*
X115350056Y-105577866D01*
X115350056Y-105577861D01*
X115290683Y-105356281D01*
X115290679Y-105356268D01*
X115202897Y-105144341D01*
X115088193Y-104945667D01*
X114970214Y-104791915D01*
X114542574Y-105219555D01*
X114507170Y-105170825D01*
X114379174Y-105042829D01*
X114330441Y-105007423D01*
X114758082Y-104579783D01*
X114604331Y-104461805D01*
X114405657Y-104347101D01*
X114193730Y-104259319D01*
X114193717Y-104259315D01*
X113972135Y-104199942D01*
X113744701Y-104170000D01*
X113515296Y-104170000D01*
X113287865Y-104199942D01*
X113287860Y-104199942D01*
X113066280Y-104259315D01*
X113066267Y-104259319D01*
X112854340Y-104347101D01*
X112655661Y-104461808D01*
X112501914Y-104579782D01*
X112929555Y-105007423D01*
X112880824Y-105042829D01*
X112752828Y-105170825D01*
X112717422Y-105219556D01*
X112289781Y-104791915D01*
X112171807Y-104945662D01*
X112057100Y-105144341D01*
X111969318Y-105356268D01*
X111969314Y-105356281D01*
X111909941Y-105577861D01*
X111909941Y-105577866D01*
X111879999Y-105805297D01*
X104100500Y-105805297D01*
X104100500Y-100684108D01*
X169249500Y-100684108D01*
X169249500Y-100815892D01*
X169279579Y-100928151D01*
X169283609Y-100943190D01*
X169349496Y-101057309D01*
X169349498Y-101057311D01*
X169349500Y-101057314D01*
X169442686Y-101150500D01*
X169442688Y-101150501D01*
X169442690Y-101150503D01*
X169556810Y-101216390D01*
X169556808Y-101216390D01*
X169556812Y-101216391D01*
X169556814Y-101216392D01*
X169684108Y-101250500D01*
X169684110Y-101250500D01*
X169815890Y-101250500D01*
X169815892Y-101250500D01*
X169943186Y-101216392D01*
X169943188Y-101216390D01*
X169943190Y-101216390D01*
X170057309Y-101150503D01*
X170057309Y-101150502D01*
X170057314Y-101150500D01*
X170150500Y-101057314D01*
X170216392Y-100943186D01*
X170250500Y-100815892D01*
X170250500Y-100684108D01*
X170216392Y-100556814D01*
X170216390Y-100556811D01*
X170216390Y-100556809D01*
X170150503Y-100442690D01*
X170150501Y-100442688D01*
X170150500Y-100442686D01*
X170057314Y-100349500D01*
X170057311Y-100349498D01*
X170057309Y-100349496D01*
X169943189Y-100283609D01*
X169943191Y-100283609D01*
X169893799Y-100270375D01*
X169815892Y-100249500D01*
X169684108Y-100249500D01*
X169606200Y-100270375D01*
X169556809Y-100283609D01*
X169442690Y-100349496D01*
X169349496Y-100442690D01*
X169283609Y-100556809D01*
X169283608Y-100556814D01*
X169249500Y-100684108D01*
X104100500Y-100684108D01*
X104100500Y-96684108D01*
X125249500Y-96684108D01*
X125249500Y-96815892D01*
X125271677Y-96898659D01*
X125283609Y-96943190D01*
X125349496Y-97057309D01*
X125349498Y-97057311D01*
X125349500Y-97057314D01*
X125442686Y-97150500D01*
X125442688Y-97150501D01*
X125442690Y-97150503D01*
X125556810Y-97216390D01*
X125556811Y-97216390D01*
X125556814Y-97216392D01*
X125601339Y-97228322D01*
X125652652Y-97261644D01*
X125674579Y-97318766D01*
X125658744Y-97377866D01*
X125645719Y-97393951D01*
X125539535Y-97500135D01*
X125539531Y-97500141D01*
X125496682Y-97574359D01*
X125496681Y-97574359D01*
X125496682Y-97574360D01*
X125474500Y-97657146D01*
X125474500Y-98276679D01*
X125455593Y-98334870D01*
X125445504Y-98346683D01*
X125442688Y-98349498D01*
X125442686Y-98349500D01*
X125374500Y-98417686D01*
X125349497Y-98442689D01*
X125349496Y-98442690D01*
X125283609Y-98556809D01*
X125283608Y-98556814D01*
X125249500Y-98684108D01*
X125249500Y-98815892D01*
X125279579Y-98928151D01*
X125283609Y-98943190D01*
X125349496Y-99057309D01*
X125349498Y-99057311D01*
X125349500Y-99057314D01*
X125442686Y-99150500D01*
X125442688Y-99150501D01*
X125442690Y-99150503D01*
X125556810Y-99216390D01*
X125556808Y-99216390D01*
X125556812Y-99216391D01*
X125556814Y-99216392D01*
X125684108Y-99250500D01*
X125684110Y-99250500D01*
X125815890Y-99250500D01*
X125815892Y-99250500D01*
X125943186Y-99216392D01*
X125943188Y-99216390D01*
X125943190Y-99216390D01*
X126057309Y-99150503D01*
X126057309Y-99150502D01*
X126057314Y-99150500D01*
X126150500Y-99057314D01*
X126216392Y-98943186D01*
X126250500Y-98815892D01*
X126250500Y-98684108D01*
X126216392Y-98556814D01*
X126216390Y-98556811D01*
X126216390Y-98556809D01*
X126150503Y-98442690D01*
X126146551Y-98437540D01*
X126148901Y-98435735D01*
X126126706Y-98392082D01*
X126125500Y-98376678D01*
X126125500Y-97875834D01*
X126144407Y-97817643D01*
X126154496Y-97805830D01*
X126582460Y-97377866D01*
X127106048Y-96854277D01*
X127160563Y-96826502D01*
X127220995Y-96836073D01*
X127264260Y-96879338D01*
X127271676Y-96898659D01*
X127283607Y-96943185D01*
X127283609Y-96943189D01*
X127349496Y-97057309D01*
X127349498Y-97057311D01*
X127349500Y-97057314D01*
X127442686Y-97150500D01*
X127442688Y-97150501D01*
X127442690Y-97150503D01*
X127556810Y-97216390D01*
X127556808Y-97216390D01*
X127556812Y-97216391D01*
X127556814Y-97216392D01*
X127684108Y-97250500D01*
X127684110Y-97250500D01*
X127815890Y-97250500D01*
X127815892Y-97250500D01*
X127943186Y-97216392D01*
X127943188Y-97216390D01*
X127943190Y-97216390D01*
X128057309Y-97150503D01*
X128057309Y-97150502D01*
X128057314Y-97150500D01*
X128150500Y-97057314D01*
X128155206Y-97049163D01*
X128216390Y-96943190D01*
X128216390Y-96943188D01*
X128216392Y-96943186D01*
X128250500Y-96815892D01*
X128250500Y-96684108D01*
X129249500Y-96684108D01*
X129249500Y-96815892D01*
X129271677Y-96898659D01*
X129283609Y-96943190D01*
X129349496Y-97057309D01*
X129349498Y-97057311D01*
X129349500Y-97057314D01*
X129442686Y-97150500D01*
X129442688Y-97150501D01*
X129442690Y-97150503D01*
X129556810Y-97216390D01*
X129556808Y-97216390D01*
X129556812Y-97216391D01*
X129556814Y-97216392D01*
X129684108Y-97250500D01*
X129684110Y-97250500D01*
X129815890Y-97250500D01*
X129815892Y-97250500D01*
X129943186Y-97216392D01*
X129943188Y-97216390D01*
X129943190Y-97216390D01*
X130057309Y-97150503D01*
X130057309Y-97150502D01*
X130057314Y-97150500D01*
X130150500Y-97057314D01*
X130155206Y-97049163D01*
X130216390Y-96943190D01*
X130216390Y-96943188D01*
X130216392Y-96943186D01*
X130250500Y-96815892D01*
X130250500Y-96684108D01*
X131249500Y-96684108D01*
X131249500Y-96815892D01*
X131271677Y-96898659D01*
X131283609Y-96943190D01*
X131349496Y-97057309D01*
X131349498Y-97057311D01*
X131349500Y-97057314D01*
X131442686Y-97150500D01*
X131442688Y-97150501D01*
X131442690Y-97150503D01*
X131556810Y-97216390D01*
X131556808Y-97216390D01*
X131556812Y-97216391D01*
X131556814Y-97216392D01*
X131684108Y-97250500D01*
X131684110Y-97250500D01*
X131815890Y-97250500D01*
X131815892Y-97250500D01*
X131943186Y-97216392D01*
X131943188Y-97216390D01*
X131943190Y-97216390D01*
X132057309Y-97150503D01*
X132057309Y-97150502D01*
X132057314Y-97150500D01*
X132150500Y-97057314D01*
X132155206Y-97049163D01*
X132216390Y-96943190D01*
X132216390Y-96943188D01*
X132216392Y-96943186D01*
X132250500Y-96815892D01*
X132250500Y-96684108D01*
X132216392Y-96556814D01*
X132216390Y-96556810D01*
X132216390Y-96556809D01*
X132150503Y-96442690D01*
X132150501Y-96442688D01*
X132150500Y-96442686D01*
X132057314Y-96349500D01*
X132057311Y-96349498D01*
X132057309Y-96349496D01*
X131943189Y-96283609D01*
X131943191Y-96283609D01*
X131893799Y-96270375D01*
X131815892Y-96249500D01*
X131684108Y-96249500D01*
X131606200Y-96270375D01*
X131556809Y-96283609D01*
X131442690Y-96349496D01*
X131349496Y-96442690D01*
X131283609Y-96556809D01*
X131283608Y-96556814D01*
X131249500Y-96684108D01*
X130250500Y-96684108D01*
X130216392Y-96556814D01*
X130216390Y-96556810D01*
X130216390Y-96556809D01*
X130150503Y-96442690D01*
X130150501Y-96442688D01*
X130150500Y-96442686D01*
X130057314Y-96349500D01*
X130057311Y-96349498D01*
X130057309Y-96349496D01*
X129943189Y-96283609D01*
X129943191Y-96283609D01*
X129893799Y-96270375D01*
X129815892Y-96249500D01*
X129684108Y-96249500D01*
X129606200Y-96270375D01*
X129556809Y-96283609D01*
X129442690Y-96349496D01*
X129349496Y-96442690D01*
X129283609Y-96556809D01*
X129283608Y-96556814D01*
X129249500Y-96684108D01*
X128250500Y-96684108D01*
X128216392Y-96556814D01*
X128216390Y-96556810D01*
X128216390Y-96556809D01*
X128150503Y-96442690D01*
X128150501Y-96442688D01*
X128150500Y-96442686D01*
X128057314Y-96349500D01*
X128057311Y-96349498D01*
X128057309Y-96349496D01*
X127943189Y-96283609D01*
X127943185Y-96283607D01*
X127898659Y-96271676D01*
X127847345Y-96238352D01*
X127825419Y-96181230D01*
X127841255Y-96122130D01*
X127854274Y-96106051D01*
X130060465Y-93899861D01*
X130103318Y-93825638D01*
X130125500Y-93742852D01*
X130125500Y-93657146D01*
X130125500Y-91123321D01*
X130144407Y-91065130D01*
X130146633Y-91062523D01*
X130146551Y-91062460D01*
X130150496Y-91057317D01*
X130150500Y-91057314D01*
X130216392Y-90943186D01*
X130250500Y-90815892D01*
X130250500Y-90684108D01*
X130216392Y-90556814D01*
X130216390Y-90556811D01*
X130216390Y-90556809D01*
X130150503Y-90442690D01*
X130150501Y-90442688D01*
X130150500Y-90442686D01*
X130057314Y-90349500D01*
X130057311Y-90349498D01*
X130057309Y-90349496D01*
X129943189Y-90283609D01*
X129943191Y-90283609D01*
X129870981Y-90264261D01*
X129815892Y-90249500D01*
X129684108Y-90249500D01*
X129629019Y-90264261D01*
X129556809Y-90283609D01*
X129442690Y-90349496D01*
X129349496Y-90442690D01*
X129283609Y-90556809D01*
X129283608Y-90556814D01*
X129249500Y-90684108D01*
X129249500Y-90815892D01*
X129279579Y-90928151D01*
X129283609Y-90943190D01*
X129349496Y-91057309D01*
X129349498Y-91057311D01*
X129349500Y-91057314D01*
X129442686Y-91150500D01*
X129442688Y-91150501D01*
X129445504Y-91153317D01*
X129473281Y-91207834D01*
X129474500Y-91223321D01*
X129474500Y-93524164D01*
X129455593Y-93582355D01*
X129445504Y-93594168D01*
X126393952Y-96645719D01*
X126339435Y-96673496D01*
X126279003Y-96663925D01*
X126235738Y-96620660D01*
X126228323Y-96601343D01*
X126216392Y-96556814D01*
X126165239Y-96468214D01*
X126150503Y-96442690D01*
X126150501Y-96442688D01*
X126150500Y-96442686D01*
X126057314Y-96349500D01*
X126057311Y-96349498D01*
X126057309Y-96349496D01*
X125943189Y-96283609D01*
X125943191Y-96283609D01*
X125893799Y-96270375D01*
X125815892Y-96249500D01*
X125684108Y-96249500D01*
X125606200Y-96270375D01*
X125556809Y-96283609D01*
X125442690Y-96349496D01*
X125349496Y-96442690D01*
X125283609Y-96556809D01*
X125283608Y-96556814D01*
X125249500Y-96684108D01*
X104100500Y-96684108D01*
X104100500Y-86684108D01*
X129249500Y-86684108D01*
X129249500Y-86815892D01*
X129256814Y-86843187D01*
X129283609Y-86943190D01*
X129349496Y-87057309D01*
X129349498Y-87057311D01*
X129349500Y-87057314D01*
X129442686Y-87150500D01*
X129442688Y-87150501D01*
X129442690Y-87150503D01*
X129556810Y-87216390D01*
X129556808Y-87216390D01*
X129556812Y-87216391D01*
X129556814Y-87216392D01*
X129684108Y-87250500D01*
X129684110Y-87250500D01*
X129815890Y-87250500D01*
X129815892Y-87250500D01*
X129943186Y-87216392D01*
X129943188Y-87216390D01*
X129943190Y-87216390D01*
X130057309Y-87150503D01*
X130057309Y-87150502D01*
X130057314Y-87150500D01*
X130150500Y-87057314D01*
X130216392Y-86943186D01*
X130250500Y-86815892D01*
X130250500Y-86684108D01*
X130216392Y-86556814D01*
X130216390Y-86556811D01*
X130216390Y-86556809D01*
X130150503Y-86442690D01*
X130146551Y-86437540D01*
X130148901Y-86435735D01*
X130126706Y-86392082D01*
X130125500Y-86376678D01*
X130125500Y-82975835D01*
X130144407Y-82917644D01*
X130154496Y-82905831D01*
X130460189Y-82600138D01*
X131788852Y-81271474D01*
X131833229Y-81245854D01*
X131943186Y-81216392D01*
X132057314Y-81150500D01*
X132150500Y-81057314D01*
X132216392Y-80943186D01*
X132250500Y-80815892D01*
X132250500Y-80684108D01*
X132216392Y-80556814D01*
X132216390Y-80556811D01*
X132216390Y-80556809D01*
X132150503Y-80442690D01*
X132150501Y-80442688D01*
X132150500Y-80442686D01*
X132057314Y-80349500D01*
X132057311Y-80349498D01*
X132057309Y-80349496D01*
X131943189Y-80283609D01*
X131943191Y-80283609D01*
X131893799Y-80270375D01*
X131815892Y-80249500D01*
X131684108Y-80249500D01*
X131606200Y-80270375D01*
X131556809Y-80283609D01*
X131442690Y-80349496D01*
X131349496Y-80442690D01*
X131283609Y-80556809D01*
X131249500Y-80684109D01*
X131249500Y-80815897D01*
X131250405Y-80819273D01*
X131250273Y-80821769D01*
X131250347Y-80822324D01*
X131250244Y-80822337D01*
X131247197Y-80880375D01*
X131224780Y-80914891D01*
X129539532Y-82600141D01*
X129539531Y-82600142D01*
X129496682Y-82674360D01*
X129496681Y-82674360D01*
X129496682Y-82674361D01*
X129474500Y-82757147D01*
X129474500Y-86276679D01*
X129455593Y-86334870D01*
X129445504Y-86346683D01*
X129442688Y-86349498D01*
X129442686Y-86349500D01*
X129374500Y-86417686D01*
X129349497Y-86442689D01*
X129349496Y-86442690D01*
X129283609Y-86556809D01*
X129283608Y-86556814D01*
X129249500Y-86684108D01*
X104100500Y-86684108D01*
X104100500Y-76684108D01*
X131249500Y-76684108D01*
X131249500Y-76815892D01*
X131279579Y-76928151D01*
X131283609Y-76943190D01*
X131349496Y-77057309D01*
X131349498Y-77057311D01*
X131349500Y-77057314D01*
X131442686Y-77150500D01*
X131442688Y-77150501D01*
X131442690Y-77150503D01*
X131556810Y-77216390D01*
X131556808Y-77216390D01*
X131556812Y-77216391D01*
X131556814Y-77216392D01*
X131684108Y-77250500D01*
X131684110Y-77250500D01*
X131815890Y-77250500D01*
X131815892Y-77250500D01*
X131943186Y-77216392D01*
X131943188Y-77216390D01*
X131943190Y-77216390D01*
X132057309Y-77150503D01*
X132057309Y-77150502D01*
X132057314Y-77150500D01*
X132150500Y-77057314D01*
X132216392Y-76943186D01*
X132250500Y-76815892D01*
X132250500Y-76684108D01*
X132216392Y-76556814D01*
X132216390Y-76556811D01*
X132216390Y-76556809D01*
X132150503Y-76442690D01*
X132146551Y-76437540D01*
X132148901Y-76435735D01*
X132126706Y-76392082D01*
X132125500Y-76376678D01*
X132125500Y-75375835D01*
X132144407Y-75317644D01*
X132154496Y-75305831D01*
X139505831Y-67954496D01*
X139560348Y-67926719D01*
X139575835Y-67925500D01*
X140875166Y-67925500D01*
X140933357Y-67944407D01*
X140969321Y-67993907D01*
X140969321Y-68055093D01*
X140945171Y-68094501D01*
X134039535Y-75000138D01*
X132839532Y-76200141D01*
X132839531Y-76200142D01*
X132796684Y-76274355D01*
X132796682Y-76274359D01*
X132796682Y-76274361D01*
X132794204Y-76283609D01*
X132776549Y-76349496D01*
X132776549Y-76349500D01*
X132774500Y-76357147D01*
X132774500Y-95957147D01*
X132774500Y-96042853D01*
X132791432Y-96106046D01*
X132796683Y-96125643D01*
X132839531Y-96199857D01*
X132839535Y-96199862D01*
X133224780Y-96585106D01*
X133252558Y-96639623D01*
X133250406Y-96680723D01*
X133249501Y-96684101D01*
X133249500Y-96684106D01*
X133249500Y-96684108D01*
X133249500Y-96815892D01*
X133271677Y-96898659D01*
X133283609Y-96943190D01*
X133349496Y-97057309D01*
X133349498Y-97057311D01*
X133349500Y-97057314D01*
X133442686Y-97150500D01*
X133442688Y-97150501D01*
X133442690Y-97150503D01*
X133556810Y-97216390D01*
X133556808Y-97216390D01*
X133556812Y-97216391D01*
X133556814Y-97216392D01*
X133684108Y-97250500D01*
X133684110Y-97250500D01*
X133815890Y-97250500D01*
X133815892Y-97250500D01*
X133943186Y-97216392D01*
X133943188Y-97216390D01*
X133943190Y-97216390D01*
X134057309Y-97150503D01*
X134057309Y-97150502D01*
X134057314Y-97150500D01*
X134150500Y-97057314D01*
X134155206Y-97049163D01*
X134216390Y-96943190D01*
X134216390Y-96943188D01*
X134216392Y-96943186D01*
X134250500Y-96815892D01*
X134250500Y-96684108D01*
X134216392Y-96556814D01*
X134216390Y-96556810D01*
X134216390Y-96556809D01*
X134150503Y-96442690D01*
X134150501Y-96442688D01*
X134150500Y-96442686D01*
X134057314Y-96349500D01*
X134057311Y-96349498D01*
X134057309Y-96349496D01*
X133943189Y-96283609D01*
X133943190Y-96283609D01*
X133833231Y-96254146D01*
X133788850Y-96228523D01*
X133454496Y-95894169D01*
X133426719Y-95839652D01*
X133425500Y-95824165D01*
X133425500Y-81310163D01*
X133444407Y-81251972D01*
X133493907Y-81216008D01*
X133550199Y-81216008D01*
X133550546Y-81214712D01*
X133556812Y-81216391D01*
X133556814Y-81216392D01*
X133684108Y-81250500D01*
X133684110Y-81250500D01*
X133815890Y-81250500D01*
X133815892Y-81250500D01*
X133896606Y-81228872D01*
X133922228Y-81225500D01*
X143824165Y-81225500D01*
X143882356Y-81244407D01*
X143894169Y-81254496D01*
X161224781Y-98585106D01*
X161252558Y-98639623D01*
X161250406Y-98680723D01*
X161249501Y-98684101D01*
X161249501Y-98684103D01*
X161249500Y-98684108D01*
X161249500Y-98815892D01*
X161279579Y-98928151D01*
X161283609Y-98943190D01*
X161349496Y-99057309D01*
X161349498Y-99057311D01*
X161349500Y-99057314D01*
X161442686Y-99150500D01*
X161442688Y-99150501D01*
X161442690Y-99150503D01*
X161556810Y-99216390D01*
X161556808Y-99216390D01*
X161556812Y-99216391D01*
X161556814Y-99216392D01*
X161684108Y-99250500D01*
X161684110Y-99250500D01*
X161815890Y-99250500D01*
X161815892Y-99250500D01*
X161943186Y-99216392D01*
X161943188Y-99216390D01*
X161943190Y-99216390D01*
X162057309Y-99150503D01*
X162057309Y-99150502D01*
X162057314Y-99150500D01*
X162150500Y-99057314D01*
X162216392Y-98943186D01*
X162250500Y-98815892D01*
X162250500Y-98684108D01*
X162216392Y-98556814D01*
X162216390Y-98556811D01*
X162216390Y-98556809D01*
X162150503Y-98442690D01*
X162150501Y-98442688D01*
X162150500Y-98442686D01*
X162057314Y-98349500D01*
X162057311Y-98349498D01*
X162057309Y-98349496D01*
X161943189Y-98283609D01*
X161943190Y-98283609D01*
X161833231Y-98254146D01*
X161788850Y-98228523D01*
X160244784Y-96684457D01*
X160181269Y-96620942D01*
X163199499Y-96620942D01*
X163199499Y-96779056D01*
X163240423Y-96931784D01*
X163240424Y-96931786D01*
X163240425Y-96931789D01*
X163319477Y-97068710D01*
X163319479Y-97068712D01*
X163319481Y-97068715D01*
X163431284Y-97180518D01*
X163431286Y-97180519D01*
X163431288Y-97180521D01*
X163568209Y-97259573D01*
X163568210Y-97259573D01*
X163568215Y-97259576D01*
X163720943Y-97300500D01*
X163720945Y-97300500D01*
X163879055Y-97300500D01*
X163879057Y-97300500D01*
X164031785Y-97259576D01*
X164168716Y-97180518D01*
X166168713Y-95180520D01*
X166168716Y-95180519D01*
X166280520Y-95068715D01*
X166352994Y-94943186D01*
X166359577Y-94931784D01*
X166400500Y-94779056D01*
X166400500Y-94620942D01*
X166400500Y-88684108D01*
X167249500Y-88684108D01*
X167249500Y-88815892D01*
X167279579Y-88928151D01*
X167283609Y-88943190D01*
X167349496Y-89057309D01*
X167349498Y-89057311D01*
X167349500Y-89057314D01*
X167442686Y-89150500D01*
X167442688Y-89150501D01*
X167445504Y-89153317D01*
X167473281Y-89207834D01*
X167474500Y-89223321D01*
X167474500Y-89757147D01*
X167474500Y-89842853D01*
X167494062Y-89915863D01*
X167496683Y-89925643D01*
X167539531Y-89999857D01*
X167539535Y-89999862D01*
X167645720Y-90106048D01*
X167673497Y-90160564D01*
X167663925Y-90220996D01*
X167620661Y-90264261D01*
X167601341Y-90271676D01*
X167579591Y-90277504D01*
X167556809Y-90283609D01*
X167442690Y-90349496D01*
X167349496Y-90442690D01*
X167283609Y-90556809D01*
X167283608Y-90556814D01*
X167249500Y-90684108D01*
X167249500Y-90815892D01*
X167279579Y-90928151D01*
X167283609Y-90943190D01*
X167349496Y-91057309D01*
X167349498Y-91057311D01*
X167349500Y-91057314D01*
X167442686Y-91150500D01*
X167442688Y-91150501D01*
X167442690Y-91150503D01*
X167556810Y-91216390D01*
X167556808Y-91216390D01*
X167556812Y-91216391D01*
X167556814Y-91216392D01*
X167684108Y-91250500D01*
X167684110Y-91250500D01*
X167815890Y-91250500D01*
X167815892Y-91250500D01*
X167943186Y-91216392D01*
X167943188Y-91216390D01*
X167943190Y-91216390D01*
X168057309Y-91150503D01*
X168057309Y-91150502D01*
X168057314Y-91150500D01*
X168150500Y-91057314D01*
X168216392Y-90943186D01*
X168228323Y-90898658D01*
X168261646Y-90847346D01*
X168318767Y-90825419D01*
X168377868Y-90841254D01*
X168393953Y-90854279D01*
X168745504Y-91205830D01*
X168773281Y-91260347D01*
X168774500Y-91275834D01*
X168774500Y-97957147D01*
X168774500Y-98042853D01*
X168794062Y-98115863D01*
X168796683Y-98125643D01*
X168839531Y-98199857D01*
X168839535Y-98199862D01*
X169224781Y-98585109D01*
X169252558Y-98639625D01*
X169250404Y-98680732D01*
X169249500Y-98684103D01*
X169249500Y-98684108D01*
X169249500Y-98815892D01*
X169279579Y-98928151D01*
X169283609Y-98943190D01*
X169349496Y-99057309D01*
X169349498Y-99057311D01*
X169349500Y-99057314D01*
X169442686Y-99150500D01*
X169442688Y-99150501D01*
X169442690Y-99150503D01*
X169556810Y-99216390D01*
X169556808Y-99216390D01*
X169556812Y-99216391D01*
X169556814Y-99216392D01*
X169684108Y-99250500D01*
X169684110Y-99250500D01*
X169815887Y-99250500D01*
X169815892Y-99250500D01*
X169819257Y-99249598D01*
X169821751Y-99249728D01*
X169822326Y-99249653D01*
X169822340Y-99249759D01*
X169880354Y-99252793D01*
X169914891Y-99275218D01*
X171224781Y-100585107D01*
X171252558Y-100639624D01*
X171250406Y-100680726D01*
X171249500Y-100684106D01*
X171249500Y-100684108D01*
X171249500Y-100815892D01*
X171279579Y-100928151D01*
X171283609Y-100943190D01*
X171349496Y-101057309D01*
X171349498Y-101057311D01*
X171349500Y-101057314D01*
X171442686Y-101150500D01*
X171442688Y-101150501D01*
X171442690Y-101150503D01*
X171556810Y-101216390D01*
X171556808Y-101216390D01*
X171556812Y-101216391D01*
X171556814Y-101216392D01*
X171684108Y-101250500D01*
X171684110Y-101250500D01*
X171815890Y-101250500D01*
X171815892Y-101250500D01*
X171943186Y-101216392D01*
X171943188Y-101216390D01*
X171943190Y-101216390D01*
X172057309Y-101150503D01*
X172057309Y-101150502D01*
X172057314Y-101150500D01*
X172150500Y-101057314D01*
X172216392Y-100943186D01*
X172250500Y-100815892D01*
X172250500Y-100684108D01*
X172216392Y-100556814D01*
X172216390Y-100556811D01*
X172216390Y-100556809D01*
X172150503Y-100442690D01*
X172150501Y-100442688D01*
X172150500Y-100442686D01*
X172057314Y-100349500D01*
X172057311Y-100349498D01*
X172057309Y-100349496D01*
X171943189Y-100283609D01*
X171943191Y-100283609D01*
X171888320Y-100268907D01*
X171833228Y-100254145D01*
X171788849Y-100228523D01*
X170307950Y-98747623D01*
X170271476Y-98711149D01*
X170255864Y-98684108D01*
X171249500Y-98684108D01*
X171249500Y-98815892D01*
X171279579Y-98928151D01*
X171283609Y-98943190D01*
X171349496Y-99057309D01*
X171349498Y-99057311D01*
X171349500Y-99057314D01*
X171442686Y-99150500D01*
X171442688Y-99150501D01*
X171442690Y-99150503D01*
X171556810Y-99216390D01*
X171556808Y-99216390D01*
X171556812Y-99216391D01*
X171556814Y-99216392D01*
X171684108Y-99250500D01*
X171684110Y-99250500D01*
X171815890Y-99250500D01*
X171815892Y-99250500D01*
X171943186Y-99216392D01*
X171943188Y-99216390D01*
X171943190Y-99216390D01*
X172057309Y-99150503D01*
X172057309Y-99150502D01*
X172057314Y-99150500D01*
X172150500Y-99057314D01*
X172216392Y-98943186D01*
X172250500Y-98815892D01*
X172250500Y-98684108D01*
X172216392Y-98556814D01*
X172216390Y-98556811D01*
X172216390Y-98556809D01*
X172150503Y-98442690D01*
X172150501Y-98442688D01*
X172150500Y-98442686D01*
X172057314Y-98349500D01*
X172057311Y-98349498D01*
X172057309Y-98349496D01*
X171943189Y-98283609D01*
X171943191Y-98283609D01*
X171893799Y-98270375D01*
X171815892Y-98249500D01*
X171684108Y-98249500D01*
X171606200Y-98270375D01*
X171556809Y-98283609D01*
X171442690Y-98349496D01*
X171349496Y-98442690D01*
X171283609Y-98556809D01*
X171283608Y-98556814D01*
X171249500Y-98684108D01*
X170255864Y-98684108D01*
X170245854Y-98666770D01*
X170216392Y-98556814D01*
X170216390Y-98556811D01*
X170216390Y-98556809D01*
X170150503Y-98442690D01*
X170150501Y-98442688D01*
X170150500Y-98442686D01*
X170057314Y-98349500D01*
X170057311Y-98349498D01*
X170057309Y-98349496D01*
X169943189Y-98283609D01*
X169943190Y-98283609D01*
X169833231Y-98254146D01*
X169788850Y-98228523D01*
X169454496Y-97894169D01*
X169426719Y-97839652D01*
X169425500Y-97824165D01*
X169425500Y-97310163D01*
X169444407Y-97251972D01*
X169493907Y-97216008D01*
X169550199Y-97216008D01*
X169550546Y-97214712D01*
X169556812Y-97216391D01*
X169556814Y-97216392D01*
X169684108Y-97250500D01*
X169684110Y-97250500D01*
X169815890Y-97250500D01*
X169815892Y-97250500D01*
X169943186Y-97216392D01*
X169943188Y-97216390D01*
X169943190Y-97216390D01*
X170057309Y-97150503D01*
X170057309Y-97150502D01*
X170057314Y-97150500D01*
X170150500Y-97057314D01*
X170150500Y-97057312D01*
X170158650Y-97049163D01*
X170158651Y-97049160D01*
X170200500Y-97007313D01*
X170200501Y-97007310D01*
X170200503Y-97007309D01*
X170266390Y-96893189D01*
X170266390Y-96893187D01*
X170266392Y-96893185D01*
X170300500Y-96765891D01*
X170300500Y-88634108D01*
X170266392Y-88506814D01*
X170266390Y-88506811D01*
X170266390Y-88506809D01*
X170200503Y-88392690D01*
X170200501Y-88392688D01*
X170200500Y-88392686D01*
X170107314Y-88299500D01*
X170107311Y-88299498D01*
X170107309Y-88299496D01*
X169993189Y-88233609D01*
X169993191Y-88233609D01*
X169940459Y-88219480D01*
X169865892Y-88199500D01*
X169734108Y-88199500D01*
X169659541Y-88219480D01*
X169606809Y-88233609D01*
X169492690Y-88299496D01*
X169492684Y-88299500D01*
X169442685Y-88349500D01*
X169349500Y-88442685D01*
X169349496Y-88442690D01*
X169283609Y-88556809D01*
X169283608Y-88556814D01*
X169249500Y-88684108D01*
X169249500Y-88815892D01*
X169283608Y-88943186D01*
X169286234Y-88947735D01*
X169299500Y-88997238D01*
X169299500Y-90600165D01*
X169280593Y-90658356D01*
X169231093Y-90694320D01*
X169169907Y-90694320D01*
X169130496Y-90670169D01*
X168154496Y-89694169D01*
X168126719Y-89639652D01*
X168125500Y-89624165D01*
X168125500Y-89123321D01*
X168144407Y-89065130D01*
X168146633Y-89062523D01*
X168146551Y-89062460D01*
X168150496Y-89057317D01*
X168150500Y-89057314D01*
X168185185Y-88997238D01*
X168216390Y-88943190D01*
X168216390Y-88943188D01*
X168216392Y-88943186D01*
X168250500Y-88815892D01*
X168250500Y-88684108D01*
X168216392Y-88556814D01*
X168216390Y-88556811D01*
X168216390Y-88556809D01*
X168150503Y-88442690D01*
X168150501Y-88442688D01*
X168150500Y-88442686D01*
X168057314Y-88349500D01*
X168057311Y-88349498D01*
X168057309Y-88349496D01*
X167943189Y-88283609D01*
X167943191Y-88283609D01*
X167893799Y-88270375D01*
X167815892Y-88249500D01*
X167684108Y-88249500D01*
X167606200Y-88270375D01*
X167556809Y-88283609D01*
X167442690Y-88349496D01*
X167349496Y-88442690D01*
X167283609Y-88556809D01*
X167283608Y-88556814D01*
X167249500Y-88684108D01*
X166400500Y-88684108D01*
X166400500Y-88620943D01*
X166359577Y-88468216D01*
X166280520Y-88331284D01*
X166168716Y-88219480D01*
X166031784Y-88140423D01*
X165879057Y-88099500D01*
X165720943Y-88099500D01*
X165568216Y-88140423D01*
X165431284Y-88219480D01*
X165319480Y-88331284D01*
X165240423Y-88468216D01*
X165237266Y-88480000D01*
X165199500Y-88620944D01*
X165199500Y-94410256D01*
X165180593Y-94468447D01*
X165170504Y-94480260D01*
X163319477Y-96331287D01*
X163240425Y-96468208D01*
X163240423Y-96468212D01*
X163240423Y-96468214D01*
X163199499Y-96620942D01*
X160181269Y-96620942D01*
X152244435Y-88684108D01*
X144199862Y-80639535D01*
X144199859Y-80639533D01*
X144199858Y-80639532D01*
X144199857Y-80639531D01*
X144125642Y-80596683D01*
X144125644Y-80596683D01*
X144093521Y-80588076D01*
X144042853Y-80574500D01*
X144042851Y-80574500D01*
X134283761Y-80574500D01*
X134225570Y-80555593D01*
X134198025Y-80525000D01*
X134150503Y-80442690D01*
X134150501Y-80442688D01*
X134150500Y-80442686D01*
X134057314Y-80349500D01*
X134057311Y-80349498D01*
X134057309Y-80349496D01*
X133943189Y-80283609D01*
X133943191Y-80283609D01*
X133893799Y-80270375D01*
X133815892Y-80249500D01*
X133684108Y-80249500D01*
X133556814Y-80283608D01*
X133556812Y-80283608D01*
X133550546Y-80285288D01*
X133549746Y-80282302D01*
X133501348Y-80286091D01*
X133449192Y-80254099D01*
X133425802Y-80197561D01*
X133425500Y-80189836D01*
X133425500Y-79310163D01*
X133444407Y-79251972D01*
X133493907Y-79216008D01*
X133550199Y-79216008D01*
X133550546Y-79214712D01*
X133556812Y-79216391D01*
X133556814Y-79216392D01*
X133684108Y-79250500D01*
X133684110Y-79250500D01*
X133815890Y-79250500D01*
X133815892Y-79250500D01*
X133943186Y-79216392D01*
X133943188Y-79216390D01*
X133943190Y-79216390D01*
X134057309Y-79150503D01*
X134057309Y-79150502D01*
X134057314Y-79150500D01*
X134150500Y-79057314D01*
X134216392Y-78943186D01*
X134250500Y-78815892D01*
X134250500Y-78684108D01*
X134216392Y-78556814D01*
X134216390Y-78556811D01*
X134216390Y-78556809D01*
X134150503Y-78442690D01*
X134146551Y-78437540D01*
X134148901Y-78435735D01*
X134126706Y-78392082D01*
X134125500Y-78376678D01*
X134125500Y-77123321D01*
X134144407Y-77065130D01*
X134146633Y-77062523D01*
X134146551Y-77062460D01*
X134150496Y-77057317D01*
X134150500Y-77057314D01*
X134216392Y-76943186D01*
X134250500Y-76815892D01*
X134250500Y-76684108D01*
X134216392Y-76556814D01*
X134216390Y-76556811D01*
X134216390Y-76556809D01*
X134150503Y-76442690D01*
X134150501Y-76442688D01*
X134150500Y-76442686D01*
X134057314Y-76349500D01*
X134057311Y-76349498D01*
X134057309Y-76349496D01*
X133943189Y-76283609D01*
X133943191Y-76283609D01*
X133917326Y-76276679D01*
X133898658Y-76271676D01*
X133847346Y-76238354D01*
X133825419Y-76181233D01*
X133841254Y-76122132D01*
X133854274Y-76106052D01*
X141305831Y-68654496D01*
X141360348Y-68626719D01*
X141375835Y-68625500D01*
X141376679Y-68625500D01*
X141434870Y-68644407D01*
X141437476Y-68646633D01*
X141437540Y-68646551D01*
X141442690Y-68650503D01*
X141556810Y-68716390D01*
X141556808Y-68716390D01*
X141556812Y-68716391D01*
X141556814Y-68716392D01*
X141684108Y-68750500D01*
X141684110Y-68750500D01*
X141815890Y-68750500D01*
X141815892Y-68750500D01*
X141943186Y-68716392D01*
X141943188Y-68716390D01*
X141943190Y-68716390D01*
X142057309Y-68650503D01*
X142057309Y-68650502D01*
X142057314Y-68650500D01*
X142150500Y-68557314D01*
X142216392Y-68443186D01*
X142250500Y-68315892D01*
X142250500Y-68184108D01*
X142216392Y-68056814D01*
X142216391Y-68056812D01*
X142214712Y-68050546D01*
X142217697Y-68049746D01*
X142213909Y-68001348D01*
X142245901Y-67949192D01*
X142302439Y-67925802D01*
X142310164Y-67925500D01*
X143924165Y-67925500D01*
X143982356Y-67944407D01*
X143994169Y-67954496D01*
X163039535Y-86999862D01*
X163039534Y-86999862D01*
X163096982Y-87057309D01*
X163100138Y-87060465D01*
X163174362Y-87103318D01*
X163257147Y-87125500D01*
X167376679Y-87125500D01*
X167434870Y-87144407D01*
X167437476Y-87146633D01*
X167437540Y-87146551D01*
X167442690Y-87150503D01*
X167556810Y-87216390D01*
X167556808Y-87216390D01*
X167556812Y-87216391D01*
X167556814Y-87216392D01*
X167684108Y-87250500D01*
X167684110Y-87250500D01*
X167815890Y-87250500D01*
X167815892Y-87250500D01*
X167943186Y-87216392D01*
X167943188Y-87216390D01*
X167943190Y-87216390D01*
X168057309Y-87150503D01*
X168057309Y-87150502D01*
X168057314Y-87150500D01*
X168057317Y-87150496D01*
X168062460Y-87146551D01*
X168064273Y-87148913D01*
X168107834Y-87126719D01*
X168123321Y-87125500D01*
X176824165Y-87125500D01*
X176882356Y-87144407D01*
X176894169Y-87154496D01*
X186245913Y-96506240D01*
X186273690Y-96560757D01*
X186271536Y-96601866D01*
X186259786Y-96645719D01*
X186249500Y-96684108D01*
X186249500Y-96815892D01*
X186271677Y-96898659D01*
X186283609Y-96943190D01*
X186349496Y-97057309D01*
X186349498Y-97057311D01*
X186349500Y-97057314D01*
X186442686Y-97150500D01*
X186442688Y-97150501D01*
X186442690Y-97150503D01*
X186556810Y-97216390D01*
X186556808Y-97216390D01*
X186556812Y-97216391D01*
X186556814Y-97216392D01*
X186684108Y-97250500D01*
X186684110Y-97250500D01*
X186815890Y-97250500D01*
X186815892Y-97250500D01*
X186943186Y-97216392D01*
X186943188Y-97216390D01*
X186943190Y-97216390D01*
X187057309Y-97150503D01*
X187057309Y-97150502D01*
X187057314Y-97150500D01*
X187150500Y-97057314D01*
X187155206Y-97049163D01*
X187216390Y-96943190D01*
X187216390Y-96943188D01*
X187216392Y-96943186D01*
X187250500Y-96815892D01*
X187250500Y-96684108D01*
X187216392Y-96556814D01*
X187216390Y-96556810D01*
X187216390Y-96556809D01*
X187150503Y-96442690D01*
X187150501Y-96442688D01*
X187150500Y-96442686D01*
X187057314Y-96349500D01*
X186956244Y-96291147D01*
X186935744Y-96275417D01*
X185407950Y-94747623D01*
X185344435Y-94684108D01*
X186249500Y-94684108D01*
X186249500Y-94815892D01*
X186279579Y-94928151D01*
X186283609Y-94943190D01*
X186349496Y-95057309D01*
X186349498Y-95057311D01*
X186349500Y-95057314D01*
X186442686Y-95150500D01*
X186442688Y-95150501D01*
X186442690Y-95150503D01*
X186556810Y-95216390D01*
X186556808Y-95216390D01*
X186556812Y-95216391D01*
X186556814Y-95216392D01*
X186684108Y-95250500D01*
X186684110Y-95250500D01*
X186815890Y-95250500D01*
X186815892Y-95250500D01*
X186943186Y-95216392D01*
X186943188Y-95216390D01*
X186943190Y-95216390D01*
X187057309Y-95150503D01*
X187057309Y-95150502D01*
X187057314Y-95150500D01*
X187150500Y-95057314D01*
X187216392Y-94943186D01*
X187250500Y-94815892D01*
X187250500Y-94684108D01*
X187216392Y-94556814D01*
X187216390Y-94556811D01*
X187216390Y-94556809D01*
X187150503Y-94442690D01*
X187150501Y-94442688D01*
X187150500Y-94442686D01*
X187057314Y-94349500D01*
X187057311Y-94349498D01*
X187057309Y-94349496D01*
X186943189Y-94283609D01*
X186943191Y-94283609D01*
X186893799Y-94270375D01*
X186815892Y-94249500D01*
X186684108Y-94249500D01*
X186606200Y-94270375D01*
X186556809Y-94283609D01*
X186442690Y-94349496D01*
X186349496Y-94442690D01*
X186283609Y-94556809D01*
X186283608Y-94556814D01*
X186249500Y-94684108D01*
X185344435Y-94684108D01*
X184184491Y-93524164D01*
X181344435Y-90684108D01*
X186249500Y-90684108D01*
X186249500Y-90815892D01*
X186279579Y-90928151D01*
X186283609Y-90943190D01*
X186349496Y-91057309D01*
X186349498Y-91057311D01*
X186349500Y-91057314D01*
X186442686Y-91150500D01*
X186442688Y-91150501D01*
X186442690Y-91150503D01*
X186556810Y-91216390D01*
X186556808Y-91216390D01*
X186556812Y-91216391D01*
X186556814Y-91216392D01*
X186684108Y-91250500D01*
X186684110Y-91250500D01*
X186815890Y-91250500D01*
X186815892Y-91250500D01*
X186943186Y-91216392D01*
X186943188Y-91216390D01*
X186943190Y-91216390D01*
X187057309Y-91150503D01*
X187057309Y-91150502D01*
X187057314Y-91150500D01*
X187150500Y-91057314D01*
X187216392Y-90943186D01*
X187250500Y-90815892D01*
X187250500Y-90684108D01*
X187216392Y-90556814D01*
X187216390Y-90556811D01*
X187216390Y-90556809D01*
X187150503Y-90442690D01*
X187150501Y-90442688D01*
X187150500Y-90442686D01*
X187057314Y-90349500D01*
X187057311Y-90349498D01*
X187057309Y-90349496D01*
X186943189Y-90283609D01*
X186943191Y-90283609D01*
X186870981Y-90264261D01*
X186815892Y-90249500D01*
X186684108Y-90249500D01*
X186629019Y-90264261D01*
X186556809Y-90283609D01*
X186442690Y-90349496D01*
X186349496Y-90442690D01*
X186283609Y-90556809D01*
X186283608Y-90556814D01*
X186249500Y-90684108D01*
X181344435Y-90684108D01*
X178368335Y-87708008D01*
X186950000Y-87708008D01*
X186950000Y-87951991D01*
X186988164Y-88192954D01*
X187063559Y-88424994D01*
X187174320Y-88642376D01*
X187174322Y-88642380D01*
X187301054Y-88816811D01*
X187946407Y-88171457D01*
X187995112Y-88244351D01*
X188085649Y-88334888D01*
X188158539Y-88383591D01*
X187513187Y-89028943D01*
X187687625Y-89155680D01*
X187905005Y-89266440D01*
X188137045Y-89341835D01*
X188378009Y-89380000D01*
X188621991Y-89380000D01*
X188862954Y-89341835D01*
X189094994Y-89266440D01*
X189312374Y-89155680D01*
X189486811Y-89028943D01*
X188841459Y-88383591D01*
X188914351Y-88334888D01*
X189004888Y-88244351D01*
X189053591Y-88171459D01*
X189698943Y-88816811D01*
X189825680Y-88642374D01*
X189936440Y-88424994D01*
X190011835Y-88192954D01*
X190050000Y-87951991D01*
X190050000Y-87708008D01*
X190011835Y-87467045D01*
X189936440Y-87235005D01*
X189825680Y-87017625D01*
X189698943Y-86843187D01*
X189053591Y-87488539D01*
X189004888Y-87415649D01*
X188914351Y-87325112D01*
X188841457Y-87276407D01*
X189486811Y-86631054D01*
X189312380Y-86504322D01*
X189312376Y-86504320D01*
X189094994Y-86393559D01*
X188862954Y-86318164D01*
X188621991Y-86280000D01*
X188378009Y-86280000D01*
X188137045Y-86318164D01*
X187905005Y-86393559D01*
X187687623Y-86504320D01*
X187687619Y-86504322D01*
X187513187Y-86631054D01*
X188158540Y-87276407D01*
X188085649Y-87325112D01*
X187995112Y-87415649D01*
X187946407Y-87488540D01*
X187301054Y-86843187D01*
X187174322Y-87017619D01*
X187174320Y-87017623D01*
X187063559Y-87235005D01*
X186988164Y-87467045D01*
X186950000Y-87708008D01*
X178368335Y-87708008D01*
X177199862Y-86539535D01*
X177199859Y-86539533D01*
X177199857Y-86539531D01*
X177125642Y-86496683D01*
X177125644Y-86496683D01*
X177093521Y-86488076D01*
X177042853Y-86474500D01*
X177042851Y-86474500D01*
X168223321Y-86474500D01*
X168165130Y-86455593D01*
X168153317Y-86445504D01*
X168150501Y-86442688D01*
X168150500Y-86442686D01*
X168057314Y-86349500D01*
X168057311Y-86349498D01*
X168057309Y-86349496D01*
X167943189Y-86283609D01*
X167943191Y-86283609D01*
X167893799Y-86270375D01*
X167815892Y-86249500D01*
X167684108Y-86249500D01*
X167606200Y-86270375D01*
X167556809Y-86283609D01*
X167442690Y-86349496D01*
X167442689Y-86349497D01*
X167442686Y-86349499D01*
X167442686Y-86349500D01*
X167349500Y-86442686D01*
X167349498Y-86442688D01*
X167346683Y-86445504D01*
X167292166Y-86473281D01*
X167276679Y-86474500D01*
X163475835Y-86474500D01*
X163417644Y-86455593D01*
X163405831Y-86445504D01*
X157644435Y-80684108D01*
X171249500Y-80684108D01*
X171249500Y-80815892D01*
X171277647Y-80920939D01*
X171283609Y-80943190D01*
X171349496Y-81057309D01*
X171349498Y-81057311D01*
X171349500Y-81057314D01*
X171442686Y-81150500D01*
X171442688Y-81150501D01*
X171442690Y-81150503D01*
X171556810Y-81216390D01*
X171556808Y-81216390D01*
X171556812Y-81216391D01*
X171556814Y-81216392D01*
X171684108Y-81250500D01*
X171684110Y-81250500D01*
X171815890Y-81250500D01*
X171815892Y-81250500D01*
X171943186Y-81216392D01*
X171943188Y-81216390D01*
X171943190Y-81216390D01*
X172057309Y-81150503D01*
X172057309Y-81150502D01*
X172057314Y-81150500D01*
X172150500Y-81057314D01*
X172216392Y-80943186D01*
X172223976Y-80914881D01*
X186199499Y-80914881D01*
X186199499Y-80920943D01*
X186199499Y-81079057D01*
X186236298Y-81216390D01*
X186240423Y-81231785D01*
X186240425Y-81231789D01*
X186252299Y-81252356D01*
X186319479Y-81368715D01*
X186431283Y-81480520D01*
X186431284Y-81480520D01*
X186431285Y-81480521D01*
X186931284Y-81980520D01*
X186950000Y-81991325D01*
X186990940Y-82036792D01*
X186999500Y-82077061D01*
X186999500Y-83854274D01*
X187002353Y-83884694D01*
X187002355Y-83884703D01*
X187047207Y-84012883D01*
X187127845Y-84122144D01*
X187127847Y-84122146D01*
X187127850Y-84122150D01*
X187127853Y-84122152D01*
X187127855Y-84122154D01*
X187237116Y-84202792D01*
X187237117Y-84202792D01*
X187237118Y-84202793D01*
X187365301Y-84247646D01*
X187395725Y-84250499D01*
X187395727Y-84250500D01*
X187395734Y-84250500D01*
X189604273Y-84250500D01*
X189604273Y-84250499D01*
X189634699Y-84247646D01*
X189762882Y-84202793D01*
X189872150Y-84122150D01*
X189952793Y-84012882D01*
X189997646Y-83884699D01*
X190000499Y-83854273D01*
X190000500Y-83854273D01*
X190000500Y-81645727D01*
X190000499Y-81645725D01*
X189997646Y-81615305D01*
X189997646Y-81615301D01*
X189952793Y-81487118D01*
X189947924Y-81480521D01*
X189872154Y-81377855D01*
X189872152Y-81377853D01*
X189872150Y-81377850D01*
X189872146Y-81377847D01*
X189872144Y-81377845D01*
X189762883Y-81297207D01*
X189634703Y-81252355D01*
X189634694Y-81252353D01*
X189604274Y-81249500D01*
X189604266Y-81249500D01*
X187905929Y-81249500D01*
X187847738Y-81230593D01*
X187820193Y-81200001D01*
X187780520Y-81131284D01*
X187706545Y-81057309D01*
X187428859Y-80779622D01*
X187401082Y-80725106D01*
X187400709Y-80722537D01*
X187400500Y-80720955D01*
X187400500Y-80720943D01*
X187359577Y-80568216D01*
X187280520Y-80431284D01*
X187168716Y-80319480D01*
X187031784Y-80240423D01*
X186879057Y-80199500D01*
X186720943Y-80199500D01*
X186568216Y-80240423D01*
X186431284Y-80319480D01*
X186319480Y-80431284D01*
X186240423Y-80568216D01*
X186199500Y-80720944D01*
X186199500Y-80914863D01*
X186199499Y-80914881D01*
X172223976Y-80914881D01*
X172250500Y-80815892D01*
X172250500Y-80684108D01*
X172216392Y-80556814D01*
X172216390Y-80556811D01*
X172216390Y-80556809D01*
X172150503Y-80442690D01*
X172150501Y-80442688D01*
X172150500Y-80442686D01*
X172057314Y-80349500D01*
X172057311Y-80349498D01*
X172057309Y-80349496D01*
X171943189Y-80283609D01*
X171943191Y-80283609D01*
X171893799Y-80270375D01*
X171815892Y-80249500D01*
X171684108Y-80249500D01*
X171606200Y-80270375D01*
X171556809Y-80283609D01*
X171442690Y-80349496D01*
X171349496Y-80442690D01*
X171283609Y-80556809D01*
X171272925Y-80596683D01*
X171249500Y-80684108D01*
X157644435Y-80684108D01*
X146873211Y-69912884D01*
X146845434Y-69858367D01*
X146855005Y-69797935D01*
X146898270Y-69754670D01*
X146958702Y-69745099D01*
X146981101Y-69751416D01*
X147101235Y-69801177D01*
X147101234Y-69801177D01*
X147170000Y-69814854D01*
X147170000Y-69339807D01*
X147204204Y-69359555D01*
X147280504Y-69379999D01*
X147359496Y-69379999D01*
X147435796Y-69359555D01*
X147470000Y-69339807D01*
X147470000Y-69814853D01*
X147538765Y-69801177D01*
X147675257Y-69744640D01*
X147798093Y-69662564D01*
X147902565Y-69558092D01*
X147984641Y-69435256D01*
X148041176Y-69298769D01*
X148041178Y-69298763D01*
X148069999Y-69153870D01*
X148070000Y-69153866D01*
X148070000Y-68680000D01*
X148069999Y-68679999D01*
X147620000Y-68679999D01*
X147620000Y-68379999D01*
X148069999Y-68379999D01*
X148070000Y-68379998D01*
X148070000Y-67937398D01*
X148274500Y-67937398D01*
X148274500Y-68062600D01*
X148306905Y-68183535D01*
X148369505Y-68291963D01*
X148458036Y-68380494D01*
X148566464Y-68443094D01*
X148687399Y-68475499D01*
X148687401Y-68475499D01*
X148812599Y-68475499D01*
X148812601Y-68475499D01*
X148933536Y-68443094D01*
X149041964Y-68380494D01*
X149098046Y-68324411D01*
X149152560Y-68296635D01*
X149212992Y-68306206D01*
X149256257Y-68349470D01*
X149263673Y-68368789D01*
X149266809Y-68380491D01*
X149283609Y-68443190D01*
X149349496Y-68557309D01*
X149349498Y-68557311D01*
X149349500Y-68557314D01*
X149442686Y-68650500D01*
X149442688Y-68650501D01*
X149442690Y-68650503D01*
X149556810Y-68716390D01*
X149556808Y-68716390D01*
X149556812Y-68716391D01*
X149556814Y-68716392D01*
X149684108Y-68750500D01*
X149684110Y-68750500D01*
X149815890Y-68750500D01*
X149815892Y-68750500D01*
X149943186Y-68716392D01*
X149943188Y-68716390D01*
X149943190Y-68716390D01*
X150057309Y-68650503D01*
X150057309Y-68650502D01*
X150057314Y-68650500D01*
X150150500Y-68557314D01*
X150216392Y-68443186D01*
X150250500Y-68315892D01*
X150250500Y-68184108D01*
X151249500Y-68184108D01*
X151249500Y-68315892D01*
X151258497Y-68349470D01*
X151283609Y-68443190D01*
X151349496Y-68557309D01*
X151349498Y-68557311D01*
X151349500Y-68557314D01*
X151442686Y-68650500D01*
X151442688Y-68650501D01*
X151442690Y-68650503D01*
X151556810Y-68716390D01*
X151556808Y-68716390D01*
X151556812Y-68716391D01*
X151556814Y-68716392D01*
X151684108Y-68750500D01*
X151684110Y-68750500D01*
X151815890Y-68750500D01*
X151815892Y-68750500D01*
X151943186Y-68716392D01*
X151943188Y-68716390D01*
X151943190Y-68716390D01*
X152057309Y-68650503D01*
X152057309Y-68650502D01*
X152057314Y-68650500D01*
X152150500Y-68557314D01*
X152216392Y-68443186D01*
X152250500Y-68315892D01*
X152250500Y-68184108D01*
X152216392Y-68056814D01*
X152216390Y-68056811D01*
X152216390Y-68056809D01*
X152172281Y-67980412D01*
X152172279Y-67980409D01*
X152150500Y-67942686D01*
X152145212Y-67937398D01*
X154054500Y-67937398D01*
X154054500Y-68062600D01*
X154086905Y-68183535D01*
X154149505Y-68291963D01*
X154238036Y-68380494D01*
X154346464Y-68443094D01*
X154467399Y-68475499D01*
X154467401Y-68475499D01*
X154592599Y-68475499D01*
X154592601Y-68475499D01*
X154713536Y-68443094D01*
X154821964Y-68380494D01*
X154910495Y-68291963D01*
X154973095Y-68183535D01*
X155005500Y-68062600D01*
X155005500Y-67937398D01*
X155002684Y-67926888D01*
X155002684Y-67926886D01*
X154997121Y-67906127D01*
X155210000Y-67906127D01*
X155210000Y-68379998D01*
X155210001Y-68379999D01*
X155660000Y-68379999D01*
X155660000Y-68679999D01*
X155210001Y-68679999D01*
X155210000Y-68680000D01*
X155210000Y-69153870D01*
X155238821Y-69298763D01*
X155238823Y-69298769D01*
X155295358Y-69435256D01*
X155377434Y-69558092D01*
X155481906Y-69662564D01*
X155604742Y-69744640D01*
X155741235Y-69801177D01*
X155741234Y-69801177D01*
X155810000Y-69814854D01*
X155810000Y-69339807D01*
X155844204Y-69359555D01*
X155920504Y-69379999D01*
X155999496Y-69379999D01*
X156075796Y-69359555D01*
X156110000Y-69339807D01*
X156110000Y-69814853D01*
X156178765Y-69801177D01*
X156315257Y-69744640D01*
X156438093Y-69662564D01*
X156542565Y-69558092D01*
X156624641Y-69435256D01*
X156681176Y-69298769D01*
X156681178Y-69298763D01*
X156709999Y-69153870D01*
X156710000Y-69153866D01*
X156710000Y-68680000D01*
X156709999Y-68679999D01*
X156260000Y-68679999D01*
X156260000Y-68379999D01*
X156709999Y-68379999D01*
X156710000Y-68379998D01*
X156710000Y-68184108D01*
X157249500Y-68184108D01*
X157249500Y-68315892D01*
X157258497Y-68349470D01*
X157283609Y-68443190D01*
X157349496Y-68557309D01*
X157349498Y-68557311D01*
X157349500Y-68557314D01*
X157442686Y-68650500D01*
X157442688Y-68650501D01*
X157442690Y-68650503D01*
X157556810Y-68716390D01*
X157556808Y-68716390D01*
X157556812Y-68716391D01*
X157556814Y-68716392D01*
X157684108Y-68750500D01*
X157684110Y-68750500D01*
X157815890Y-68750500D01*
X157815892Y-68750500D01*
X157943186Y-68716392D01*
X157943188Y-68716390D01*
X157943190Y-68716390D01*
X158057309Y-68650503D01*
X158057309Y-68650502D01*
X158057314Y-68650500D01*
X158150500Y-68557314D01*
X158216392Y-68443186D01*
X158250500Y-68315892D01*
X158250500Y-68184108D01*
X158216392Y-68056814D01*
X158216390Y-68056811D01*
X158216390Y-68056809D01*
X158150503Y-67942690D01*
X158150501Y-67942688D01*
X158150500Y-67942686D01*
X158057314Y-67849500D01*
X158057311Y-67849498D01*
X158057309Y-67849496D01*
X157943189Y-67783609D01*
X157943191Y-67783609D01*
X157893799Y-67770375D01*
X157815892Y-67749500D01*
X157684108Y-67749500D01*
X157606200Y-67770375D01*
X157556809Y-67783609D01*
X157442690Y-67849496D01*
X157349496Y-67942690D01*
X157283609Y-68056809D01*
X157273509Y-68094504D01*
X157249500Y-68184108D01*
X156710000Y-68184108D01*
X156710000Y-67906131D01*
X156709999Y-67906127D01*
X156681178Y-67761234D01*
X156681176Y-67761228D01*
X156624641Y-67624741D01*
X156542565Y-67501905D01*
X156438093Y-67397433D01*
X156315257Y-67315357D01*
X156178767Y-67258821D01*
X156110000Y-67245142D01*
X156110000Y-67720190D01*
X156075796Y-67700443D01*
X155999496Y-67679999D01*
X155920504Y-67679999D01*
X155844204Y-67700443D01*
X155810000Y-67720190D01*
X155810000Y-67245142D01*
X155741232Y-67258821D01*
X155604742Y-67315357D01*
X155481906Y-67397433D01*
X155377434Y-67501905D01*
X155295358Y-67624741D01*
X155238823Y-67761228D01*
X155238821Y-67761234D01*
X155210000Y-67906127D01*
X154997121Y-67906127D01*
X154973096Y-67816466D01*
X154973095Y-67816465D01*
X154973095Y-67816463D01*
X154910495Y-67708035D01*
X154821964Y-67619504D01*
X154713536Y-67556904D01*
X154592601Y-67524499D01*
X154467399Y-67524499D01*
X154386775Y-67546102D01*
X154346463Y-67556904D01*
X154238036Y-67619504D01*
X154149505Y-67708035D01*
X154086905Y-67816462D01*
X154086905Y-67816463D01*
X154054500Y-67937398D01*
X152145212Y-67937398D01*
X152057314Y-67849500D01*
X152057311Y-67849498D01*
X152057309Y-67849496D01*
X151943189Y-67783609D01*
X151943191Y-67783609D01*
X151893799Y-67770375D01*
X151815892Y-67749500D01*
X151684108Y-67749500D01*
X151606200Y-67770375D01*
X151556809Y-67783609D01*
X151442690Y-67849496D01*
X151349496Y-67942690D01*
X151283609Y-68056809D01*
X151273509Y-68094504D01*
X151249500Y-68184108D01*
X150250500Y-68184108D01*
X150216392Y-68056814D01*
X150216390Y-68056811D01*
X150216390Y-68056809D01*
X150150503Y-67942690D01*
X150150501Y-67942688D01*
X150150500Y-67942686D01*
X150057314Y-67849500D01*
X150057311Y-67849498D01*
X150057309Y-67849496D01*
X149943189Y-67783609D01*
X149943191Y-67783609D01*
X149893799Y-67770375D01*
X149815892Y-67749500D01*
X149684108Y-67749500D01*
X149606200Y-67770375D01*
X149556809Y-67783609D01*
X149442690Y-67849496D01*
X149442685Y-67849500D01*
X149374070Y-67918115D01*
X149319553Y-67945892D01*
X149259121Y-67936320D01*
X149215857Y-67893055D01*
X149208443Y-67873742D01*
X149193095Y-67816463D01*
X149130495Y-67708035D01*
X149041964Y-67619504D01*
X148933536Y-67556904D01*
X148812601Y-67524499D01*
X148687399Y-67524499D01*
X148606775Y-67546102D01*
X148566463Y-67556904D01*
X148458036Y-67619504D01*
X148369505Y-67708035D01*
X148306905Y-67816462D01*
X148306905Y-67816463D01*
X148274500Y-67937398D01*
X148070000Y-67937398D01*
X148070000Y-67906131D01*
X148069999Y-67906127D01*
X148041178Y-67761234D01*
X148041176Y-67761228D01*
X147984641Y-67624741D01*
X147902565Y-67501905D01*
X147798093Y-67397433D01*
X147675257Y-67315357D01*
X147538767Y-67258821D01*
X147470000Y-67245142D01*
X147470000Y-67720190D01*
X147435796Y-67700443D01*
X147359496Y-67679999D01*
X147280504Y-67679999D01*
X147204204Y-67700443D01*
X147170000Y-67720190D01*
X147170000Y-67245142D01*
X147101232Y-67258821D01*
X146964742Y-67315357D01*
X146841906Y-67397433D01*
X146737434Y-67501905D01*
X146655358Y-67624741D01*
X146598823Y-67761228D01*
X146598821Y-67761234D01*
X146570000Y-67906127D01*
X146570000Y-68379998D01*
X146570001Y-68379999D01*
X147020000Y-68379999D01*
X147020000Y-68679999D01*
X146570001Y-68679999D01*
X146570000Y-68680000D01*
X146570000Y-69153870D01*
X146598821Y-69298763D01*
X146598823Y-69298769D01*
X146648582Y-69418897D01*
X146653383Y-69479894D01*
X146621413Y-69532063D01*
X146564885Y-69555478D01*
X146505391Y-69541194D01*
X146487114Y-69526787D01*
X145854279Y-68893952D01*
X145826502Y-68839435D01*
X145836073Y-68779003D01*
X145879338Y-68735738D01*
X145898652Y-68728324D01*
X145943186Y-68716392D01*
X146057314Y-68650500D01*
X146150500Y-68557314D01*
X146216392Y-68443186D01*
X146250500Y-68315892D01*
X146250500Y-68184108D01*
X146216392Y-68056814D01*
X146215398Y-68055093D01*
X146155165Y-67950766D01*
X146155164Y-67950764D01*
X146150501Y-67942688D01*
X146150500Y-67942686D01*
X146057314Y-67849500D01*
X146057311Y-67849498D01*
X146057309Y-67849496D01*
X145943189Y-67783609D01*
X145943191Y-67783609D01*
X145893799Y-67770375D01*
X145815892Y-67749500D01*
X145684108Y-67749500D01*
X145606200Y-67770375D01*
X145556809Y-67783609D01*
X145442690Y-67849496D01*
X145349496Y-67942690D01*
X145283609Y-68056809D01*
X145271678Y-68101339D01*
X145238354Y-68152654D01*
X145181232Y-68174580D01*
X145122132Y-68158744D01*
X145106047Y-68145720D01*
X144709827Y-67749500D01*
X144299862Y-67339535D01*
X144299859Y-67339533D01*
X144299858Y-67339532D01*
X144299857Y-67339531D01*
X144225642Y-67296683D01*
X144225644Y-67296683D01*
X144193521Y-67288076D01*
X144142853Y-67274500D01*
X139442853Y-67274500D01*
X139357147Y-67274500D01*
X139306478Y-67288076D01*
X139274356Y-67296683D01*
X139200142Y-67339531D01*
X131539531Y-75000142D01*
X131496682Y-75074360D01*
X131496681Y-75074360D01*
X131496682Y-75074361D01*
X131474500Y-75157147D01*
X131474500Y-76276679D01*
X131455593Y-76334870D01*
X131445504Y-76346683D01*
X131442688Y-76349498D01*
X131442686Y-76349500D01*
X131374500Y-76417686D01*
X131349497Y-76442689D01*
X131349496Y-76442690D01*
X131283609Y-76556809D01*
X131283608Y-76556814D01*
X131249500Y-76684108D01*
X104100500Y-76684108D01*
X104100500Y-63976127D01*
X146570000Y-63976127D01*
X146570000Y-64199998D01*
X146570001Y-64199999D01*
X147020000Y-64199999D01*
X147020000Y-64499999D01*
X146570001Y-64499999D01*
X146570000Y-64500000D01*
X146570000Y-64723870D01*
X146598821Y-64868763D01*
X146598823Y-64868769D01*
X146655358Y-65005256D01*
X146737434Y-65128092D01*
X146841906Y-65232564D01*
X146964742Y-65314640D01*
X147101235Y-65371177D01*
X147101234Y-65371177D01*
X147170000Y-65384854D01*
X147170000Y-64909807D01*
X147204204Y-64929555D01*
X147280504Y-64949999D01*
X147359496Y-64949999D01*
X147435796Y-64929555D01*
X147470000Y-64909807D01*
X147470000Y-65384853D01*
X147538765Y-65371177D01*
X147675257Y-65314640D01*
X147798093Y-65232564D01*
X147902565Y-65128092D01*
X147984641Y-65005256D01*
X148041176Y-64868769D01*
X148041178Y-64868763D01*
X148069999Y-64723870D01*
X148070000Y-64723866D01*
X148070000Y-64500000D01*
X148069999Y-64499999D01*
X147620000Y-64499999D01*
X147620000Y-64199999D01*
X148069999Y-64199999D01*
X148070000Y-64199998D01*
X148070000Y-63976131D01*
X148069999Y-63976127D01*
X155210000Y-63976127D01*
X155210000Y-64199998D01*
X155210001Y-64199999D01*
X155660000Y-64199999D01*
X155660000Y-64499999D01*
X155210001Y-64499999D01*
X155210000Y-64500000D01*
X155210000Y-64723870D01*
X155238821Y-64868763D01*
X155238823Y-64868769D01*
X155295358Y-65005256D01*
X155377434Y-65128092D01*
X155481906Y-65232564D01*
X155604742Y-65314640D01*
X155741235Y-65371177D01*
X155741234Y-65371177D01*
X155810000Y-65384854D01*
X155810000Y-64909807D01*
X155844204Y-64929555D01*
X155920504Y-64949999D01*
X155999496Y-64949999D01*
X156075796Y-64929555D01*
X156110000Y-64909807D01*
X156110000Y-65384853D01*
X156178765Y-65371177D01*
X156315257Y-65314640D01*
X156438093Y-65232564D01*
X156542565Y-65128092D01*
X156624641Y-65005256D01*
X156681176Y-64868769D01*
X156681178Y-64868763D01*
X156709999Y-64723870D01*
X156710000Y-64723866D01*
X156710000Y-64500000D01*
X156709999Y-64499999D01*
X156260000Y-64499999D01*
X156260000Y-64199999D01*
X156709999Y-64199999D01*
X156710000Y-64199998D01*
X156710000Y-63976131D01*
X156709999Y-63976127D01*
X156681178Y-63831234D01*
X156681176Y-63831228D01*
X156624641Y-63694741D01*
X156542565Y-63571905D01*
X156438093Y-63467433D01*
X156315257Y-63385357D01*
X156178767Y-63328821D01*
X156110000Y-63315142D01*
X156110000Y-63790190D01*
X156075796Y-63770443D01*
X155999496Y-63749999D01*
X155920504Y-63749999D01*
X155844204Y-63770443D01*
X155810000Y-63790190D01*
X155810000Y-63315142D01*
X155741232Y-63328821D01*
X155604742Y-63385357D01*
X155481906Y-63467433D01*
X155377434Y-63571905D01*
X155295358Y-63694741D01*
X155238823Y-63831228D01*
X155238821Y-63831234D01*
X155210000Y-63976127D01*
X148069999Y-63976127D01*
X148041178Y-63831234D01*
X148041176Y-63831228D01*
X147984641Y-63694741D01*
X147902565Y-63571905D01*
X147798093Y-63467433D01*
X147675257Y-63385357D01*
X147538767Y-63328821D01*
X147470000Y-63315142D01*
X147470000Y-63790190D01*
X147435796Y-63770443D01*
X147359496Y-63749999D01*
X147280504Y-63749999D01*
X147204204Y-63770443D01*
X147170000Y-63790190D01*
X147170000Y-63315142D01*
X147101232Y-63328821D01*
X146964742Y-63385357D01*
X146841906Y-63467433D01*
X146737434Y-63571905D01*
X146655358Y-63694741D01*
X146598823Y-63831228D01*
X146598821Y-63831234D01*
X146570000Y-63976127D01*
X104100500Y-63976127D01*
X104100500Y-61699500D01*
X104119407Y-61641309D01*
X104168907Y-61605345D01*
X104199500Y-61600500D01*
X193300500Y-61600500D01*
X193358691Y-61619407D01*
G37*
%TD.AperFunction*%
%TD*%
M02*
